%FSDAX33Y33*%
%MOMM*%
%SFA1B1*%

%IPPOS*%
%AMD1002*
%
%ADD39C,0.499999*%
%ADD41C,2.000001*%
%ADD42C,1.000001*%
%ADD43C,1.524000*%
%ADD44C,1.699999*%
%ADD45C,1.500000*%
%ADD46R,1.500000X1.500000*%
%ADD47C,2.032000*%
%ADD48C,3.500001*%
%ADD49C,1.270000*%
%ADD50C,1.599999*%
%LNbottomlayer-1*%
%LPD*%
G36*
X127000Y152400D02*
X000000D01*
Y000000*
X127000*
Y152400*
G37*
%LNbottomlayer-2*%
%LPC*%
G36*
X033497Y031216D02*
X093497D01*
Y121216*
X033497*
Y031216*
G37*
%LNbottomlayer-3*%
%LPD*%
G36*
X034797Y120273D02*
X092197D01*
X092333Y120246*
X092449Y120168*
X092527Y120053*
X092554Y119916*
Y032516*
X092527Y032380*
X092449Y032264*
X092333Y032186*
X092197Y032159*
X034797*
X034660Y032186*
X034545Y032264*
X034467Y032380*
X034440Y032516*
Y119916*
X034467Y120053*
X034545Y120168*
X034660Y120246*
X034797Y120273*
G37*
%LNbottomlayer-4*%
%LPC*%
G36*
X039794Y052336D02*
X039698Y052339D01*
X039613Y052346*
X039537Y052359*
X039472Y052376*
X039417Y052399*
X039371Y052426*
X039336Y052459*
X039311Y052496*
X039296Y052539*
X039291Y052586*
Y051586*
X039296Y051634*
X039311Y051676*
X039336Y051714*
X039371Y051746*
X039417Y051774*
X039472Y051796*
X039537Y051814*
X039613Y051826*
X039698Y051834*
X039794Y051836*
Y052336*
G37*
G36*
X069267Y110393D02*
X069264Y110323D01*
X069256Y110254*
X069241Y110187*
X069222Y110121*
X069196Y110057*
X069165Y109995*
X069128Y109934*
X069086Y109874*
X069037Y109817*
X068983Y109760*
X070050*
X069996Y109817*
X069948Y109874*
X069906Y109934*
X069869Y109995*
X069838Y110057*
X069812Y110121*
X069792Y110187*
X069778Y110254*
X069770Y110323*
X069767Y110393*
X069267*
G37*
G36*
X054047Y115039D02*
X054050Y115109D01*
X054058Y115178*
X054072Y115245*
X054092Y115311*
X054118Y115375*
X054149Y115437*
X054186Y115498*
X054228Y115558*
X054276Y115616*
X054330Y115672*
X053263*
X053317Y115616*
X053366Y115558*
X053408Y115498*
X053445Y115437*
X053476Y115375*
X053502Y115311*
X053521Y115245*
X053536Y115178*
X053544Y115109*
X053547Y115039*
X054047*
G37*
G36*
X065927D02*
X065930Y115109D01*
X065938Y115178*
X065952Y115245*
X065972Y115311*
X065998Y115375*
X066029Y115437*
X066066Y115498*
X066108Y115558*
X066156Y115616*
X066210Y115672*
X065143*
X065197Y115616*
X065246Y115558*
X065288Y115498*
X065325Y115437*
X065356Y115375*
X065382Y115311*
X065401Y115245*
X065416Y115178*
X065424Y115109*
X065427Y115039*
X065927*
G37*
G36*
X038297Y108998D02*
X038287Y108879D01*
X038258Y108752*
X038209Y108618*
X038141Y108476*
X038053Y108327*
X037946Y108170*
X037819Y108005*
X037507Y107653*
X037322Y107466*
X039772*
X039587Y107653*
X039275Y108005*
X039148Y108170*
X039041Y108327*
X038953Y108476*
X038885Y108618*
X038836Y108752*
X038807Y108879*
X038797Y108998*
X038297*
G37*
G36*
X064927Y114266D02*
X065677Y113766D01*
X066427Y114266*
X066332Y114271*
X066247Y114286*
X066172Y114311*
X066107Y114346*
X066052Y114391*
X066007Y114446*
X065972Y114511*
X065947Y114586*
X065932Y114671*
X065927Y114766*
X065427*
X065422Y114671*
X065407Y114586*
X065382Y114511*
X065347Y114446*
X065302Y114391*
X065247Y114346*
X065182Y114311*
X065107Y114286*
X065022Y114271*
X064927Y114266*
G37*
G36*
X069767Y111866D02*
X069267Y111116D01*
X069767Y110366*
X069772Y110461*
X069787Y110546*
X069812Y110621*
X069847Y110686*
X069892Y110741*
X069947Y110786*
X070012Y110821*
X070087Y110846*
X070172Y110861*
X070267Y110866*
Y111366*
X070172Y111371*
X070087Y111386*
X070012Y111411*
X069947Y111446*
X069892Y111491*
X069847Y111546*
X069812Y111611*
X069787Y111686*
X069772Y111771*
X069767Y111866*
G37*
G36*
X054247Y114620D02*
X053790Y114370D01*
X053853Y114299*
X053903Y114228*
X053938Y114158*
X053959Y114087*
X053967Y114016*
X053959Y113945*
X053938Y113875*
X053903Y113804*
X053853Y113733*
X053790Y113663*
X054247Y113413*
X054319Y113480*
X054394Y113540*
X054472Y113593*
X054553Y113639*
X054637Y113678*
X054724Y113710*
X054814Y113734*
X054906Y113752*
X055002Y113763*
X055100Y113766*
Y114266*
X055002Y114270*
X054906Y114280*
X054814Y114298*
X054724Y114323*
X054637Y114354*
X054553Y114393*
X054472Y114439*
X054394Y114492*
X054319Y114552*
X054247Y114620*
G37*
G36*
X078962Y076266D02*
X078899Y076268D01*
X078839Y076274*
X078781Y076284*
X078726Y076297*
X078674Y076315*
X078624Y076336*
X078576Y076361*
X078532Y076391*
X078490Y076424*
X078450Y076461*
Y075572*
X078490Y075609*
X078532Y075642*
X078576Y075671*
X078624Y075696*
X078674Y075717*
X078726Y075735*
X078781Y075749*
X078839Y075758*
X078899Y075764*
X078962Y075766*
Y076266*
G37*
G36*
X077491Y075157D02*
X077537Y075200D01*
X077584Y075239*
X077632Y075273*
X077680Y075302*
X077730Y075327*
X077780Y075347*
X077831Y075362*
X077883Y075373*
X077937Y075379*
X077991Y075381*
X077362Y076010*
X077360Y075956*
X077354Y075903*
X077343Y075850*
X077327Y075799*
X077307Y075749*
X077283Y075699*
X077253Y075651*
X077219Y075603*
X077181Y075556*
X077138Y075511*
X077491Y075157*
G37*
G36*
X081338Y075621D02*
X081381Y075576D01*
X081419Y075529*
X081453Y075481*
X081483Y075433*
X081507Y075383*
X081527Y075333*
X081543Y075282*
X081554Y075230*
X081560Y075176*
X081562Y075122*
X082191Y075751*
X082137Y075753*
X082083Y075759*
X082031Y075770*
X081980Y075786*
X081930Y075806*
X081880Y075830*
X081832Y075860*
X081784Y075894*
X081737Y075932*
X081692Y075975*
X081338Y075621*
G37*
G36*
X068629Y074833D02*
X068566Y074835D01*
X068506Y074841*
X068448Y074851*
X068393Y074864*
X068341Y074882*
X068291Y074903*
X068243Y074928*
X068199Y074958*
X068157Y074991*
X068117Y075028*
Y074139*
X068157Y074176*
X068199Y074209*
X068243Y074238*
X068291Y074263*
X068341Y074284*
X068393Y074302*
X068448Y074316*
X068506Y074325*
X068566Y074331*
X068629Y074333*
Y074833*
G37*
G36*
X041347Y073951D02*
X041349Y074014D01*
X041355Y074074*
X041364Y074132*
X041378Y074187*
X041396Y074239*
X041417Y074289*
X041442Y074337*
X041471Y074381*
X041504Y074423*
X041541Y074463*
X040652*
X040689Y074423*
X040722Y074381*
X040752Y074337*
X040777Y074289*
X040798Y074239*
X040816Y074187*
X040829Y074132*
X040839Y074074*
X040845Y074014*
X040847Y073951*
X041347*
G37*
G36*
X035154Y032873D02*
X091840D01*
Y119559*
X035154*
Y032873*
G37*
%LNbottomlayer-5*%
%LPD*%
G36*
X046021Y076782D02*
X046239Y076754D01*
X046442Y076669*
X046616Y076536*
X046750Y076361*
X046834Y076158*
X046863Y075940*
X046834Y075722*
X046750Y075519*
X046616Y075345*
X046442Y075211*
X046239Y075127*
X046021Y075098*
X046000Y075101*
X045976Y075100*
X045940Y075096*
X045906Y075088*
X045871Y075078*
X045837Y075064*
X045803Y075047*
X045768Y075026*
X045732Y075001*
X045722Y074992*
X044056Y073326*
Y060587*
X044057Y060575*
X044064Y060532*
X044074Y060492*
X044086Y060455*
X044101Y060421*
X044118Y060390*
X044137Y060360*
X044159Y060332*
X044176Y060314*
X044192Y060302*
X044326Y060127*
X044410Y059924*
X044439Y059706*
X044410Y059488*
X044326Y059285*
X044192Y059111*
X044018Y058977*
X043815Y058893*
X043597Y058864*
X043379Y058893*
X043176Y058977*
X043001Y059111*
X042868Y059285*
X042783Y059488*
X042755Y059706*
X042783Y059924*
X042868Y060127*
X043001Y060302*
X043018Y060314*
X043035Y060332*
X043057Y060360*
X043076Y060390*
X043093Y060421*
X043108Y060455*
X043120Y060492*
X043130Y060532*
X043137Y060575*
X043138Y060587*
Y073516*
X043173Y073692*
X043272Y073841*
X045073Y075641*
X045081Y075651*
X045107Y075687*
X045128Y075722*
X045145Y075756*
X045159Y075791*
X045169Y075825*
X045176Y075860*
X045181Y075895*
X045181Y075919*
X045179Y075940*
X045207Y076158*
X045292Y076361*
X045425Y076536*
X045600Y076669*
X045803Y076754*
X046021Y076782*
G37*
G36*
X038547Y063204D02*
X038795Y063172D01*
X039026Y063076*
X039224Y062924*
X039377Y062725*
X039472Y062494*
X039505Y062246*
X039472Y061998*
X039377Y061767*
X039224Y061569*
X039026Y061416*
X038795Y061321*
X038547Y061288*
X038299Y061321*
X038068Y061416*
X037869Y061569*
X037717Y061767*
X037621Y061998*
X037589Y062246*
X037621Y062494*
X037717Y062725*
X037869Y062924*
X038068Y063076*
X038299Y063172*
X038547Y063204*
G37*
G36*
Y058124D02*
X038795Y058092D01*
X039026Y057996*
X039224Y057844*
X039377Y057645*
X039472Y057414*
X039505Y057166*
X039472Y056918*
X039377Y056687*
X039224Y056489*
X039026Y056336*
X038795Y056241*
X038547Y056208*
X038299Y056241*
X038068Y056336*
X037869Y056489*
X037717Y056687*
X037621Y056918*
X037589Y057166*
X037621Y057414*
X037717Y057645*
X037869Y057844*
X038068Y057996*
X038299Y058092*
X038547Y058124*
G37*
G36*
Y060664D02*
X038795Y060632D01*
X039026Y060536*
X039224Y060384*
X039377Y060185*
X039472Y059954*
X039505Y059706*
X039472Y059458*
X039377Y059227*
X039224Y059029*
X039026Y058876*
X038795Y058781*
X038547Y058748*
X038299Y058781*
X038068Y058876*
X037869Y059029*
X037717Y059227*
X037621Y059458*
X037589Y059706*
X037621Y059954*
X037717Y060185*
X037869Y060384*
X038068Y060536*
X038299Y060632*
X038547Y060664*
G37*
G36*
Y070824D02*
X038795Y070792D01*
X039026Y070696*
X039224Y070544*
X039377Y070345*
X039472Y070114*
X039505Y069866*
X039472Y069618*
X039377Y069387*
X039224Y069189*
X039026Y069036*
X038795Y068941*
X038547Y068908*
X038299Y068941*
X038068Y069036*
X037869Y069189*
X037717Y069387*
X037621Y069618*
X037589Y069866*
X037621Y070114*
X037717Y070345*
X037869Y070544*
X038068Y070696*
X038299Y070792*
X038547Y070824*
G37*
G36*
Y073364D02*
X038795Y073332D01*
X039026Y073236*
X039224Y073084*
X039377Y072885*
X039472Y072654*
X039505Y072406*
X039472Y072158*
X039377Y071927*
X039224Y071729*
X039026Y071576*
X038795Y071481*
X038547Y071448*
X038299Y071481*
X038068Y071576*
X037869Y071729*
X037717Y071927*
X037621Y072158*
X037589Y072406*
X037621Y072654*
X037717Y072885*
X037869Y073084*
X038068Y073236*
X038299Y073332*
X038547Y073364*
G37*
G36*
Y065744D02*
X038795Y065712D01*
X039026Y065616*
X039224Y065464*
X039377Y065265*
X039472Y065034*
X039505Y064786*
X039472Y064538*
X039377Y064307*
X039224Y064109*
X039026Y063956*
X038795Y063861*
X038547Y063828*
X038299Y063861*
X038068Y063956*
X037869Y064109*
X037717Y064307*
X037621Y064538*
X037589Y064786*
X037621Y065034*
X037717Y065265*
X037869Y065464*
X038068Y065616*
X038299Y065712*
X038547Y065744*
G37*
G36*
Y068284D02*
X038795Y068252D01*
X039026Y068156*
X039224Y068004*
X039377Y067805*
X039472Y067574*
X039505Y067326*
X039472Y067078*
X039377Y066847*
X039224Y066649*
X039026Y066496*
X038795Y066401*
X038547Y066368*
X038299Y066401*
X038068Y066496*
X037869Y066649*
X037717Y066847*
X037621Y067078*
X037589Y067326*
X037621Y067574*
X037717Y067805*
X037869Y068004*
X038068Y068156*
X038299Y068252*
X038547Y068284*
G37*
G36*
X038674Y051959D02*
X039551D01*
Y051082*
X038674*
Y051959*
G37*
G36*
X037543D02*
X038420D01*
Y051082*
X037543*
Y051959*
G37*
G36*
X038420Y048217D02*
Y046343D01*
X036546*
X036572Y046609*
X036686Y046987*
X036873Y047335*
X037123Y047640*
X037428Y047890*
X037776Y048076*
X038154Y048191*
X038420Y048217*
G37*
G36*
X088674Y051959D02*
X089551D01*
Y051082*
X088674*
Y051959*
G37*
G36*
X038547Y055584D02*
X038795Y055552D01*
X039026Y055456*
X039224Y055304*
X039377Y055105*
X039472Y054874*
X039505Y054626*
X039472Y054378*
X039377Y054147*
X039224Y053949*
X039026Y053796*
X038795Y053701*
X038547Y053668*
X038299Y053701*
X038068Y053796*
X037869Y053949*
X037717Y054147*
X037621Y054378*
X037589Y054626*
X037621Y054874*
X037717Y055105*
X037869Y055304*
X038068Y055456*
X038299Y055552*
X038547Y055584*
G37*
G36*
X047197Y074958D02*
X047415Y074930D01*
X047618Y074845*
X047792Y074712*
X047926Y074537*
X048010Y074334*
X048039Y074116*
X048010Y073898*
X047926Y073695*
X047792Y073521*
X047618Y073387*
X047415Y073303*
X047197Y073274*
X047119Y073284*
X047105Y073282*
X047062Y073286*
X047030Y073285*
X046999Y073281*
X046968Y073274*
X046937Y073263*
X046906Y073249*
X046873Y073230*
X046839Y073207*
X046827Y073197*
X046156Y072526*
Y058616*
X046121Y058441*
X046021Y058292*
X043644Y055915*
X043636Y055905*
X043611Y055869*
X043590Y055834*
X043573Y055800*
X043559Y055766*
X043549Y055731*
X043541Y055696*
X043537Y055661*
X043536Y055637*
X043539Y055616*
X043510Y055398*
X043426Y055195*
X043292Y055021*
X043118Y054887*
X042915Y054803*
X042697Y054774*
X042479Y054803*
X042276Y054887*
X042101Y055021*
X041968Y055195*
X041883Y055398*
X041855Y055616*
X041883Y055834*
X041968Y056037*
X042101Y056212*
X042276Y056345*
X042479Y056430*
X042697Y056458*
X042718Y056456*
X042742Y056456*
X042777Y056461*
X042812Y056468*
X042846Y056478*
X042881Y056492*
X042915Y056509*
X042950Y056530*
X042986Y056556*
X042996Y056564*
X045238Y058806*
Y072716*
X045273Y072892*
X045372Y073041*
X046230Y073898*
X046235Y073904*
X046263Y073941*
X046286Y073978*
X046307Y074014*
X046324Y074051*
X046338Y074088*
X046349Y074125*
X046357Y074163*
X046363Y074209*
X046369Y074226*
X046383Y074334*
X046468Y074537*
X046601Y074712*
X046776Y074845*
X046979Y074930*
X047197Y074958*
G37*
G36*
X038674Y053090D02*
X039551D01*
Y052213*
X038674*
Y053090*
G37*
G36*
X037543D02*
X038420D01*
Y052213*
X037543*
Y053090*
G37*
G36*
X041224Y075796D02*
X041329Y075782D01*
X041545Y075693*
X041731Y075550*
X041873Y075364*
X041963Y075148*
X041977Y075043*
X041224*
Y075796*
G37*
G36*
X040970D02*
Y075043D01*
X040217*
X040231Y075148*
X040320Y075364*
X040463Y075550*
X040649Y075693*
X040865Y075782*
X040970Y075796*
G37*
G36*
X067791Y075463D02*
X067896Y075449D01*
X068112Y075360*
X068298Y075217*
X068440Y075031*
X068530Y074815*
X068544Y074710*
X067791*
Y075463*
G37*
G36*
X067537D02*
Y074710D01*
X066784*
X066798Y074815*
X066887Y075031*
X067030Y075217*
X067216Y075360*
X067432Y075449*
X067537Y075463*
G37*
G36*
X078124Y075889D02*
X078877D01*
X078863Y075784*
X078773Y075568*
X078631Y075382*
X078445Y075240*
X078229Y075150*
X078124Y075136*
Y075889*
G37*
G36*
X077117D02*
X077870D01*
Y075136*
X077765Y075150*
X077549Y075240*
X077363Y075382*
X077220Y075568*
X077131Y075784*
X077117Y075889*
G37*
G36*
X038674Y075942D02*
X038809Y075924D01*
X039053Y075823*
X039263Y075662*
X039424Y075452*
X039525Y075208*
X039543Y075073*
X038674*
Y075942*
G37*
G36*
X038420D02*
Y075073D01*
X037551*
X037569Y075208*
X037670Y075452*
X037831Y075662*
X038041Y075823*
X038285Y075924*
X038420Y075942*
G37*
G36*
X037551Y074819D02*
X038420D01*
Y073950*
X038285Y073968*
X038041Y074069*
X037831Y074230*
X037670Y074440*
X037569Y074684*
X037551Y074819*
G37*
G36*
X038674D02*
X039543D01*
X039525Y074684*
X039424Y074440*
X039263Y074230*
X039053Y074069*
X038809Y073968*
X038674Y073950*
Y074819*
G37*
G36*
X067791Y074456D02*
X068544D01*
X068530Y074351*
X068440Y074135*
X068298Y073949*
X068112Y073807*
X067896Y073717*
X067791Y073703*
Y074456*
G37*
G36*
X066784D02*
X067537D01*
Y073703*
X067432Y073717*
X067216Y073807*
X067030Y073949*
X066887Y074135*
X066798Y074351*
X066784Y074456*
G37*
G36*
X082324Y074989D02*
X083077D01*
X083063Y074884*
X082973Y074668*
X082831Y074482*
X082645Y074340*
X082429Y074250*
X082324Y074236*
Y074989*
G37*
G36*
X081317D02*
X082070D01*
Y074236*
X081965Y074250*
X081749Y074340*
X081563Y074482*
X081420Y074668*
X081331Y074884*
X081317Y074989*
G37*
G36*
X041224Y074789D02*
X041977D01*
X041963Y074684*
X041873Y074468*
X041731Y074282*
X041545Y074140*
X041329Y074050*
X041224Y074036*
Y074789*
G37*
G36*
X040217D02*
X040970D01*
Y074036*
X040865Y074050*
X040649Y074140*
X040463Y074282*
X040320Y074468*
X040231Y074684*
X040217Y074789*
G37*
G36*
X038674Y048217D02*
X038940Y048191D01*
X039318Y048076*
X039666Y047890*
X039971Y047640*
X040221Y047335*
X040407Y046987*
X040522Y046609*
X040548Y046343*
X038674*
Y048217*
G37*
G36*
X065677Y037186D02*
X065928Y037153D01*
X066162Y037056*
X066363Y036902*
X066517Y036701*
X066614Y036467*
X066647Y036216*
X066614Y035965*
X066517Y035731*
X066363Y035530*
X066162Y035376*
X065928Y035279*
X065677Y035246*
X065426Y035279*
X065192Y035376*
X064991Y035530*
X064837Y035731*
X064740Y035965*
X064707Y036216*
X064740Y036467*
X064837Y036701*
X064991Y036902*
X065192Y037056*
X065426Y037153*
X065677Y037186*
G37*
G36*
X058877D02*
X059128Y037153D01*
X059362Y037056*
X059563Y036902*
X059717Y036701*
X059814Y036467*
X059847Y036216*
X059814Y035965*
X059717Y035731*
X059563Y035530*
X059362Y035376*
X059128Y035279*
X058877Y035246*
X058626Y035279*
X058392Y035376*
X058191Y035530*
X058037Y035731*
X057940Y035965*
X057907Y036216*
X057940Y036467*
X058037Y036701*
X058191Y036902*
X058392Y037056*
X058626Y037153*
X058877Y037186*
G37*
G36*
X070757D02*
X071008Y037153D01*
X071242Y037056*
X071443Y036902*
X071597Y036701*
X071694Y036467*
X071727Y036216*
X071694Y035965*
X071597Y035731*
X071443Y035530*
X071242Y035376*
X071008Y035279*
X070757Y035246*
X070506Y035279*
X070272Y035376*
X070071Y035530*
X069917Y035731*
X069820Y035965*
X069787Y036216*
X069820Y036467*
X069917Y036701*
X070071Y036902*
X070272Y037056*
X070506Y037153*
X070757Y037186*
G37*
G36*
X068217D02*
X068468Y037153D01*
X068702Y037056*
X068903Y036902*
X069057Y036701*
X069154Y036467*
X069187Y036216*
X069154Y035965*
X069057Y035731*
X068903Y035530*
X068702Y035376*
X068468Y035279*
X068217Y035246*
X067966Y035279*
X067732Y035376*
X067531Y035530*
X067377Y035731*
X067280Y035965*
X067247Y036216*
X067280Y036467*
X067377Y036701*
X067531Y036902*
X067732Y037056*
X067966Y037153*
X068217Y037186*
G37*
G36*
X073424Y037224D02*
X073562Y037206D01*
X073809Y037104*
X074022Y036941*
X074184Y036728*
X074287Y036481*
X074305Y036343*
X073424*
Y037224*
G37*
G36*
X073170D02*
Y036343D01*
X072289*
X072307Y036481*
X072409Y036728*
X072572Y036941*
X072784Y037104*
X073032Y037206*
X073170Y037224*
G37*
G36*
X056337Y037186D02*
X056588Y037153D01*
X056822Y037056*
X057023Y036902*
X057177Y036701*
X057274Y036467*
X057307Y036216*
X057274Y035965*
X057177Y035731*
X057023Y035530*
X056822Y035376*
X056588Y035279*
X056337Y035246*
X056086Y035279*
X055852Y035376*
X055651Y035530*
X055497Y035731*
X055400Y035965*
X055367Y036216*
X055400Y036467*
X055497Y036701*
X055651Y036902*
X055852Y037056*
X056086Y037153*
X056337Y037186*
G37*
G36*
X053797D02*
X054048Y037153D01*
X054282Y037056*
X054483Y036902*
X054637Y036701*
X054734Y036467*
X054767Y036216*
X054734Y035965*
X054637Y035731*
X054483Y035530*
X054282Y035376*
X054048Y035279*
X053797Y035246*
X053546Y035279*
X053312Y035376*
X053111Y035530*
X052957Y035731*
X052860Y035965*
X052827Y036216*
X052860Y036467*
X052957Y036701*
X053111Y036902*
X053312Y037056*
X053546Y037153*
X053797Y037186*
G37*
G36*
X049797Y037275D02*
X050071Y037239D01*
X050326Y037133*
X050546Y036965*
X050714Y036746*
X050820Y036490*
X050856Y036216*
X050820Y035942*
X050714Y035687*
X050546Y035467*
X050326Y035299*
X050071Y035193*
X049797Y035157*
X049523Y035193*
X049267Y035299*
X049048Y035467*
X048880Y035687*
X048774Y035942*
X048738Y036216*
X048774Y036490*
X048880Y036746*
X049048Y036965*
X049267Y037133*
X049523Y037239*
X049797Y037275*
G37*
G36*
X044297D02*
X044571Y037239D01*
X044826Y037133*
X045046Y036965*
X045214Y036746*
X045320Y036490*
X045356Y036216*
X045320Y035942*
X045214Y035687*
X045046Y035467*
X044826Y035299*
X044571Y035193*
X044297Y035157*
X044023Y035193*
X043767Y035299*
X043548Y035467*
X043380Y035687*
X043274Y035942*
X043238Y036216*
X043274Y036490*
X043380Y036746*
X043548Y036965*
X043767Y037133*
X044023Y037239*
X044297Y037275*
G37*
G36*
X082797D02*
X083071Y037239D01*
X083326Y037133*
X083546Y036965*
X083714Y036746*
X083820Y036490*
X083856Y036216*
X083820Y035942*
X083714Y035687*
X083546Y035467*
X083326Y035299*
X083071Y035193*
X082797Y035157*
X082523Y035193*
X082267Y035299*
X082048Y035467*
X081880Y035687*
X081774Y035942*
X081738Y036216*
X081774Y036490*
X081880Y036746*
X082048Y036965*
X082267Y037133*
X082523Y037239*
X082797Y037275*
G37*
G36*
X077297D02*
X077571Y037239D01*
X077826Y037133*
X078046Y036965*
X078214Y036746*
X078320Y036490*
X078356Y036216*
X078320Y035942*
X078214Y035687*
X078046Y035467*
X077826Y035299*
X077571Y035193*
X077297Y035157*
X077023Y035193*
X076767Y035299*
X076548Y035467*
X076380Y035687*
X076274Y035942*
X076238Y036216*
X076274Y036490*
X076380Y036746*
X076548Y036965*
X076767Y037133*
X077023Y037239*
X077297Y037275*
G37*
G36*
X061544Y036089D02*
X062425D01*
X062407Y035951*
X062304Y035704*
X062142Y035491*
X061929Y035329*
X061682Y035226*
X061544Y035208*
Y036089*
G37*
G36*
X060409D02*
X061290D01*
Y035208*
X061152Y035226*
X060905Y035329*
X060692Y035491*
X060529Y035704*
X060427Y035951*
X060409Y036089*
G37*
G36*
X073424D02*
X074305D01*
X074287Y035951*
X074184Y035704*
X074022Y035491*
X073809Y035329*
X073562Y035226*
X073424Y035208*
Y036089*
G37*
G36*
X072289D02*
X073170D01*
Y035208*
X073032Y035226*
X072784Y035329*
X072572Y035491*
X072409Y035704*
X072307Y035951*
X072289Y036089*
G37*
G36*
X038674Y046089D02*
X040548D01*
X040522Y045823*
X040407Y045445*
X040221Y045097*
X039971Y044792*
X039666Y044542*
X039318Y044356*
X038940Y044241*
X038674Y044215*
Y046089*
G37*
G36*
X036546D02*
X038420D01*
Y044215*
X038154Y044241*
X037776Y044356*
X037428Y044542*
X037123Y044792*
X036873Y045097*
X036686Y045445*
X036572Y045823*
X036546Y046089*
G37*
G36*
X062924Y044589D02*
X064061D01*
X064034Y044385*
X063906Y044076*
X063703Y043810*
X063437Y043607*
X063128Y043479*
X062924Y043452*
Y044589*
G37*
G36*
X061533D02*
X062670D01*
Y043452*
X062465Y043479*
X062156Y043607*
X061891Y043810*
X061688Y044076*
X061560Y044385*
X061533Y044589*
G37*
G36*
X062670Y045980D02*
Y044843D01*
X061533*
X061560Y045048*
X061688Y045357*
X061891Y045622*
X062156Y045825*
X062465Y045953*
X062670Y045980*
G37*
G36*
X088674Y048217D02*
X088940Y048191D01*
X089318Y048076*
X089666Y047890*
X089971Y047640*
X090221Y047335*
X090407Y046987*
X090522Y046609*
X090548Y046343*
X088674*
Y048217*
G37*
G36*
Y046089D02*
X090548D01*
X090522Y045823*
X090407Y045445*
X090221Y045097*
X089971Y044792*
X089666Y044542*
X089318Y044356*
X088940Y044241*
X088674Y044215*
Y046089*
G37*
G36*
X062924Y045980D02*
X063128Y045953D01*
X063437Y045825*
X063703Y045622*
X063906Y045357*
X064034Y045048*
X064061Y044843*
X062924*
Y045980*
G37*
G36*
X068509Y043089D02*
X069390D01*
Y042208*
X069252Y042226*
X069004Y042329*
X068792Y042491*
X068629Y042704*
X068527Y042951*
X068509Y043089*
G37*
G36*
X069644D02*
X070525D01*
X070507Y042951*
X070404Y042704*
X070241Y042491*
X070029Y042329*
X069782Y042226*
X069644Y042208*
Y043089*
G37*
G36*
X061544Y037224D02*
X061682Y037206D01*
X061929Y037104*
X062142Y036941*
X062304Y036728*
X062407Y036481*
X062425Y036343*
X061544*
Y037224*
G37*
G36*
X061290D02*
Y036343D01*
X060409*
X060427Y036481*
X060529Y036728*
X060692Y036941*
X060905Y037104*
X061152Y037206*
X061290Y037224*
G37*
G36*
X069644Y044224D02*
X069782Y044206D01*
X070029Y044104*
X070241Y043941*
X070404Y043728*
X070507Y043481*
X070525Y043343*
X069644*
Y044224*
G37*
G36*
X069390D02*
Y043343D01*
X068509*
X068527Y043481*
X068629Y043728*
X068792Y043941*
X069004Y044104*
X069252Y044206*
X069390Y044224*
G37*
G36*
X074597Y044186D02*
X074848Y044153D01*
X075082Y044056*
X075283Y043902*
X075437Y043701*
X075534Y043467*
X075567Y043216*
X075534Y042965*
X075437Y042731*
X075283Y042530*
X075082Y042376*
X074848Y042279*
X074597Y042246*
X074346Y042279*
X074112Y042376*
X073911Y042530*
X073757Y042731*
X073660Y042965*
X073627Y043216*
X073660Y043467*
X073757Y043701*
X073911Y043902*
X074112Y044056*
X074346Y044153*
X074597Y044186*
G37*
G36*
X072057D02*
X072308Y044153D01*
X072542Y044056*
X072743Y043902*
X072897Y043701*
X072994Y043467*
X073027Y043216*
X072994Y042965*
X072897Y042731*
X072743Y042530*
X072542Y042376*
X072308Y042279*
X072057Y042246*
X071806Y042279*
X071572Y042376*
X071371Y042530*
X071217Y042731*
X071120Y042965*
X071087Y043216*
X071120Y043467*
X071217Y043701*
X071371Y043902*
X071572Y044056*
X071806Y044153*
X072057Y044186*
G37*
G36*
X082324Y075996D02*
X082429Y075982D01*
X082645Y075893*
X082831Y075750*
X082973Y075564*
X083063Y075348*
X083077Y075243*
X082324*
Y075996*
G37*
G36*
X074597Y110186D02*
X074848Y110153D01*
X075082Y110056*
X075283Y109902*
X075437Y109701*
X075534Y109467*
X075567Y109216*
X075534Y108965*
X075437Y108731*
X075283Y108530*
X075082Y108376*
X074848Y108279*
X074597Y108246*
X074346Y108279*
X074112Y108376*
X073911Y108530*
X073757Y108731*
X073660Y108965*
X073627Y109216*
X073660Y109467*
X073757Y109701*
X073911Y109902*
X074112Y110056*
X074346Y110153*
X074597Y110186*
G37*
G36*
X072057D02*
X072308Y110153D01*
X072542Y110056*
X072743Y109902*
X072897Y109701*
X072994Y109467*
X073027Y109216*
X072994Y108965*
X072897Y108731*
X072743Y108530*
X072542Y108376*
X072308Y108279*
X072057Y108246*
X071806Y108279*
X071572Y108376*
X071371Y108530*
X071217Y108731*
X071120Y108965*
X071087Y109216*
X071120Y109467*
X071217Y109701*
X071371Y109902*
X071572Y110056*
X071806Y110153*
X072057Y110186*
G37*
G36*
X068509Y109089D02*
X069390D01*
Y108208*
X069252Y108226*
X069004Y108329*
X068792Y108491*
X068629Y108704*
X068527Y108951*
X068509Y109089*
G37*
G36*
X069644D02*
X070525D01*
X070507Y108951*
X070404Y108704*
X070241Y108491*
X070029Y108329*
X069782Y108226*
X069644Y108208*
Y109089*
G37*
G36*
X082797Y117275D02*
X083071Y117239D01*
X083326Y117133*
X083546Y116965*
X083714Y116746*
X083820Y116490*
X083856Y116216*
X083820Y115942*
X083714Y115687*
X083546Y115467*
X083326Y115299*
X083071Y115193*
X082797Y115157*
X082523Y115193*
X082267Y115299*
X082048Y115467*
X081880Y115687*
X081774Y115942*
X081738Y116216*
X081774Y116490*
X081880Y116746*
X082048Y116965*
X082267Y117133*
X082523Y117239*
X082797Y117275*
G37*
G36*
X077297D02*
X077571Y117239D01*
X077826Y117133*
X078046Y116965*
X078214Y116746*
X078320Y116490*
X078356Y116216*
X078320Y115942*
X078214Y115687*
X078046Y115467*
X077826Y115299*
X077571Y115193*
X077297Y115157*
X077023Y115193*
X076767Y115299*
X076548Y115467*
X076380Y115687*
X076274Y115942*
X076238Y116216*
X076274Y116490*
X076380Y116746*
X076548Y116965*
X076767Y117133*
X077023Y117239*
X077297Y117275*
G37*
G36*
X069644Y110224D02*
X069782Y110206D01*
X070029Y110104*
X070241Y109941*
X070404Y109728*
X070507Y109481*
X070525Y109343*
X069644*
Y110224*
G37*
G36*
X069390D02*
Y109343D01*
X068509*
X068527Y109481*
X068629Y109728*
X068792Y109941*
X069004Y110104*
X069252Y110206*
X069390Y110224*
G37*
G36*
X038674Y106089D02*
X040548D01*
X040522Y105823*
X040407Y105445*
X040221Y105097*
X039971Y104792*
X039666Y104542*
X039318Y104356*
X038940Y104241*
X038674Y104215*
Y106089*
G37*
G36*
X036546D02*
X038420D01*
Y104215*
X038154Y104241*
X037776Y104356*
X037428Y104542*
X037123Y104792*
X036873Y105097*
X036686Y105445*
X036572Y105823*
X036546Y106089*
G37*
G36*
X088674D02*
X090548D01*
X090522Y105823*
X090407Y105445*
X090221Y105097*
X089971Y104792*
X089666Y104542*
X089318Y104356*
X088940Y104241*
X088674Y104215*
Y106089*
G37*
G36*
X086546D02*
X088420D01*
Y104215*
X088154Y104241*
X087776Y104356*
X087428Y104542*
X087123Y104792*
X086873Y105097*
X086686Y105445*
X086572Y105823*
X086546Y106089*
G37*
G36*
X038674Y108217D02*
X038940Y108191D01*
X039318Y108077*
X039666Y107890*
X039971Y107640*
X040221Y107335*
X040407Y106987*
X040522Y106609*
X040548Y106343*
X038674*
Y108217*
G37*
G36*
X038420D02*
Y106343D01*
X036546*
X036572Y106609*
X036686Y106987*
X036873Y107335*
X037123Y107640*
X037428Y107890*
X037776Y108077*
X038154Y108191*
X038420Y108217*
G37*
G36*
X088674D02*
X088940Y108191D01*
X089318Y108077*
X089666Y107890*
X089971Y107640*
X090221Y107335*
X090407Y106987*
X090522Y106609*
X090548Y106343*
X088674*
Y108217*
G37*
G36*
X088420D02*
Y106343D01*
X086546*
X086572Y106609*
X086686Y106987*
X086873Y107335*
X087123Y107640*
X087428Y107890*
X087776Y108077*
X088154Y108191*
X088420Y108217*
G37*
G36*
X058877Y117186D02*
X059128Y117153D01*
X059362Y117056*
X059563Y116902*
X059717Y116701*
X059814Y116467*
X059847Y116216*
X059814Y115965*
X059717Y115731*
X059563Y115530*
X059362Y115376*
X059128Y115279*
X058877Y115246*
X058626Y115279*
X058392Y115376*
X058191Y115530*
X058037Y115731*
X057940Y115965*
X057907Y116216*
X057940Y116467*
X058037Y116701*
X058191Y116902*
X058392Y117056*
X058626Y117153*
X058877Y117186*
G37*
G36*
X056337D02*
X056588Y117153D01*
X056822Y117056*
X057023Y116902*
X057177Y116701*
X057274Y116467*
X057307Y116216*
X057274Y115965*
X057177Y115731*
X057023Y115530*
X056822Y115376*
X056588Y115279*
X056337Y115246*
X056086Y115279*
X055852Y115376*
X055651Y115530*
X055497Y115731*
X055400Y115965*
X055367Y116216*
X055400Y116467*
X055497Y116701*
X055651Y116902*
X055852Y117056*
X056086Y117153*
X056337Y117186*
G37*
G36*
X068217D02*
X068468Y117153D01*
X068702Y117056*
X068903Y116902*
X069057Y116701*
X069154Y116467*
X069187Y116216*
X069154Y115965*
X069057Y115731*
X068903Y115530*
X068702Y115376*
X068468Y115279*
X068217Y115246*
X067966Y115279*
X067732Y115376*
X067531Y115530*
X067377Y115731*
X067280Y115965*
X067247Y116216*
X067280Y116467*
X067377Y116701*
X067531Y116902*
X067732Y117056*
X067966Y117153*
X068217Y117186*
G37*
G36*
X061417D02*
X061668Y117153D01*
X061902Y117056*
X062103Y116902*
X062257Y116701*
X062354Y116467*
X062387Y116216*
X062354Y115965*
X062257Y115731*
X062103Y115530*
X061902Y115376*
X061668Y115279*
X061417Y115246*
X061166Y115279*
X060932Y115376*
X060731Y115530*
X060577Y115731*
X060480Y115965*
X060447Y116216*
X060480Y116467*
X060577Y116701*
X060731Y116902*
X060932Y117056*
X061166Y117153*
X061417Y117186*
G37*
G36*
X053670Y117224D02*
Y116343D01*
X052789*
X052807Y116481*
X052909Y116728*
X053072Y116941*
X053285Y117104*
X053532Y117206*
X053670Y117224*
G37*
G36*
X065550D02*
Y116343D01*
X064669*
X064687Y116481*
X064789Y116728*
X064952Y116941*
X065164Y117104*
X065412Y117206*
X065550Y117224*
G37*
G36*
X065804D02*
X065942Y117206D01*
X066189Y117104*
X066402Y116941*
X066564Y116728*
X066667Y116481*
X066685Y116343*
X065804*
Y117224*
G37*
G36*
X053924D02*
X054062Y117206D01*
X054309Y117104*
X054522Y116941*
X054684Y116728*
X054787Y116481*
X054805Y116343*
X053924*
Y117224*
G37*
G36*
X052789Y116089D02*
X053670D01*
Y115208*
X053532Y115226*
X053285Y115329*
X053072Y115491*
X052909Y115704*
X052807Y115951*
X052789Y116089*
G37*
G36*
X065804D02*
X066685D01*
X066667Y115951*
X066564Y115704*
X066402Y115491*
X066189Y115329*
X065942Y115226*
X065804Y115208*
Y116089*
G37*
G36*
X049797Y117275D02*
X050071Y117239D01*
X050326Y117133*
X050546Y116965*
X050714Y116746*
X050820Y116490*
X050856Y116216*
X050820Y115942*
X050714Y115687*
X050546Y115467*
X050326Y115299*
X050071Y115193*
X049797Y115157*
X049523Y115193*
X049267Y115299*
X049048Y115467*
X048880Y115687*
X048774Y115942*
X048738Y116216*
X048774Y116490*
X048880Y116746*
X049048Y116965*
X049267Y117133*
X049523Y117239*
X049797Y117275*
G37*
G36*
X044297D02*
X044571Y117239D01*
X044826Y117133*
X045046Y116965*
X045214Y116746*
X045320Y116490*
X045356Y116216*
X045320Y115942*
X045214Y115687*
X045046Y115467*
X044826Y115299*
X044571Y115193*
X044297Y115157*
X044023Y115193*
X043767Y115299*
X043548Y115467*
X043380Y115687*
X043274Y115942*
X043238Y116216*
X043274Y116490*
X043380Y116746*
X043548Y116965*
X043767Y117133*
X044023Y117239*
X044297Y117275*
G37*
G36*
X073297Y117186D02*
X073548Y117153D01*
X073782Y117056*
X073983Y116902*
X074137Y116701*
X074234Y116467*
X074267Y116216*
X074234Y115965*
X074137Y115731*
X073983Y115530*
X073782Y115376*
X073548Y115279*
X073297Y115246*
X073046Y115279*
X072812Y115376*
X072611Y115530*
X072457Y115731*
X072360Y115965*
X072327Y116216*
X072360Y116467*
X072457Y116701*
X072611Y116902*
X072812Y117056*
X073046Y117153*
X073297Y117186*
G37*
G36*
X070757D02*
X071008Y117153D01*
X071242Y117056*
X071443Y116902*
X071597Y116701*
X071694Y116467*
X071727Y116216*
X071694Y115965*
X071597Y115731*
X071443Y115530*
X071242Y115376*
X071008Y115279*
X070757Y115246*
X070506Y115279*
X070272Y115376*
X070071Y115530*
X069917Y115731*
X069820Y115965*
X069787Y116216*
X069820Y116467*
X069917Y116701*
X070071Y116902*
X070272Y117056*
X070506Y117153*
X070757Y117186*
G37*
G36*
X064669Y116089D02*
X065550D01*
Y115208*
X065412Y115226*
X065164Y115329*
X064952Y115491*
X064789Y115704*
X064687Y115951*
X064669Y116089*
G37*
G36*
X053924D02*
X054805D01*
X054787Y115951*
X054684Y115704*
X054522Y115491*
X054309Y115329*
X054062Y115226*
X053924Y115208*
Y116089*
G37*
G36*
X038420Y101342D02*
Y100473D01*
X037551*
X037569Y100608*
X037670Y100852*
X037831Y101062*
X038041Y101223*
X038285Y101324*
X038420Y101342*
G37*
G36*
Y081022D02*
Y080153D01*
X037551*
X037569Y080288*
X037670Y080532*
X037831Y080742*
X038041Y080903*
X038285Y081004*
X038420Y081022*
G37*
G36*
X037551Y082439D02*
X038420D01*
Y081570*
X038285Y081588*
X038041Y081689*
X037831Y081850*
X037670Y082060*
X037569Y082304*
X037551Y082439*
G37*
G36*
X038674Y079899D02*
X039543D01*
X039525Y079764*
X039424Y079520*
X039263Y079310*
X039053Y079149*
X038809Y079048*
X038674Y079030*
Y079899*
G37*
G36*
Y081022D02*
X038809Y081004D01*
X039053Y080903*
X039263Y080742*
X039424Y080532*
X039525Y080288*
X039543Y080153*
X038674*
Y081022*
G37*
G36*
X038420Y083562D02*
Y082693D01*
X037551*
X037569Y082828*
X037670Y083072*
X037831Y083282*
X038041Y083443*
X038285Y083544*
X038420Y083562*
G37*
G36*
X068597Y094558D02*
X068815Y094530D01*
X069018Y094445*
X069192Y094312*
X069326Y094137*
X069410Y093934*
X069439Y093716*
X069410Y093498*
X069326Y093295*
X069192Y093121*
X069176Y093108*
X069159Y093090*
X069137Y093062*
X069118Y093032*
X069101Y093001*
X069086Y092967*
X069074Y092930*
X069064Y092891*
X069057Y092848*
X069056Y092835*
Y092406*
X084321Y077141*
X084421Y076992*
X084456Y076816*
Y073716*
X084421Y073541*
X084321Y073392*
X072321Y061392*
X072172Y061292*
X071997Y061257*
X070578*
X070565Y061256*
X070522Y061249*
X070483Y061239*
X070446Y061227*
X070412Y061212*
X070381Y061195*
X070351Y061176*
X070323Y061154*
X070305Y061137*
X070292Y061121*
X070118Y060987*
X069915Y060903*
X069697Y060874*
X069479Y060903*
X069276Y060987*
X069101Y061121*
X069089Y061137*
X069071Y061154*
X069043Y061176*
X069013Y061195*
X068982Y061212*
X068948Y061227*
X068911Y061239*
X068871Y061249*
X068828Y061256*
X068816Y061257*
X063897*
X063721Y061292*
X063572Y061392*
X040317Y084647*
X039629*
X039600Y084644*
X039550Y084633*
X039502Y084619*
X039455Y084601*
X039409Y084578*
X039363Y084551*
X039318Y084518*
X039273Y084481*
X039242Y084451*
X039224Y084429*
X039026Y084276*
X038795Y084181*
X038547Y084148*
X038299Y084181*
X038068Y084276*
X037869Y084429*
X037717Y084627*
X037621Y084858*
X037589Y085106*
X037621Y085354*
X037717Y085585*
X037869Y085784*
X037892Y085801*
X037922Y085832*
X037959Y085877*
X037991Y085922*
X038019Y085968*
X038041Y086014*
X038060Y086061*
X038074Y086109*
X038084Y086159*
X038088Y086188*
Y086564*
X038084Y086593*
X038074Y086643*
X038060Y086691*
X038041Y086738*
X038019Y086784*
X037991Y086830*
X037959Y086875*
X037922Y086920*
X037892Y086951*
X037869Y086969*
X037717Y087167*
X037621Y087398*
X037589Y087646*
X037621Y087894*
X037717Y088125*
X037869Y088324*
X038068Y088476*
X038299Y088572*
X038547Y088604*
X038795Y088572*
X039026Y088476*
X039224Y088324*
X039377Y088125*
X039472Y087894*
X039505Y087646*
X039472Y087398*
X039377Y087167*
X039224Y086969*
X039202Y086951*
X039172Y086920*
X039135Y086875*
X039102Y086830*
X039075Y086784*
X039052Y086738*
X039034Y086691*
X039020Y086643*
X039009Y086593*
X039006Y086564*
Y086188*
X039009Y086159*
X039020Y086109*
X039034Y086061*
X039052Y086014*
X039075Y085968*
X039102Y085922*
X039135Y085877*
X039172Y085832*
X039202Y085801*
X039224Y085784*
X039242Y085761*
X039273Y085731*
X039318Y085694*
X039363Y085662*
X039409Y085634*
X039455Y085611*
X039502Y085593*
X039550Y085579*
X039600Y085568*
X039629Y085565*
X040507*
X040682Y085530*
X040831Y085431*
X064087Y062175*
X068816*
X068828Y062176*
X068871Y062183*
X068911Y062193*
X068948Y062205*
X068982Y062220*
X069013Y062237*
X069043Y062256*
X069071Y062278*
X069089Y062295*
X069101Y062312*
X069276Y062445*
X069479Y062530*
X069697Y062558*
X069915Y062530*
X070118Y062445*
X070292Y062312*
X070305Y062295*
X070323Y062278*
X070351Y062256*
X070381Y062237*
X070412Y062220*
X070446Y062205*
X070483Y062193*
X070522Y062183*
X070565Y062176*
X070578Y062175*
X071807*
X083538Y073906*
Y076626*
X068272Y091892*
X068173Y092041*
X068138Y092216*
Y092835*
X068137Y092848*
X068130Y092891*
X068120Y092930*
X068108Y092967*
X068093Y093001*
X068076Y093032*
X068057Y093062*
X068035Y093090*
X068018Y093108*
X068001Y093121*
X067868Y093295*
X067783Y093498*
X067755Y093716*
X067783Y093934*
X067868Y094137*
X068001Y094312*
X068176Y094445*
X068379Y094530*
X068597Y094558*
G37*
G36*
X038674Y082439D02*
X039543D01*
X039525Y082304*
X039424Y082060*
X039263Y081850*
X039053Y081689*
X038809Y081588*
X038674Y081570*
Y082439*
G37*
G36*
Y083562D02*
X038809Y083544D01*
X039053Y083443*
X039263Y083282*
X039424Y083072*
X039525Y082828*
X039543Y082693*
X038674*
Y083562*
G37*
G36*
X077870Y076896D02*
Y076143D01*
X077117*
X077131Y076248*
X077220Y076464*
X077363Y076650*
X077549Y076793*
X077765Y076882*
X077870Y076896*
G37*
G36*
X037551Y077359D02*
X038420D01*
Y076490*
X038285Y076508*
X038041Y076609*
X037831Y076770*
X037670Y076980*
X037569Y077224*
X037551Y077359*
G37*
G36*
X082070Y075996D02*
Y075243D01*
X081317*
X081331Y075348*
X081420Y075564*
X081563Y075750*
X081749Y075893*
X081965Y075982*
X082070Y075996*
G37*
G36*
X078124Y076896D02*
X078229Y076882D01*
X078445Y076793*
X078631Y076650*
X078773Y076464*
X078863Y076248*
X078877Y076143*
X078124*
Y076896*
G37*
G36*
X038420Y078482D02*
Y077613D01*
X037551*
X037569Y077748*
X037670Y077992*
X037831Y078202*
X038041Y078363*
X038285Y078464*
X038420Y078482*
G37*
G36*
X037551Y079899D02*
X038420D01*
Y079030*
X038285Y079048*
X038041Y079149*
X037831Y079310*
X037670Y079520*
X037569Y079764*
X037551Y079899*
G37*
G36*
X038674Y077359D02*
X039543D01*
X039525Y077224*
X039424Y076980*
X039263Y076770*
X039053Y076609*
X038809Y076508*
X038674Y076490*
Y077359*
G37*
G36*
Y078482D02*
X038809Y078464D01*
X039053Y078363*
X039263Y078202*
X039424Y077992*
X039525Y077748*
X039543Y077613*
X038674*
Y078482*
G37*
G36*
X038420Y093722D02*
Y092853D01*
X037551*
X037569Y092988*
X037670Y093232*
X037831Y093442*
X038041Y093603*
X038285Y093704*
X038420Y093722*
G37*
G36*
X038547Y098764D02*
X038795Y098732D01*
X039026Y098636*
X039224Y098484*
X039377Y098285*
X039472Y098054*
X039505Y097806*
X039472Y097558*
X039377Y097327*
X039224Y097129*
X039202Y097111*
X039172Y097080*
X039135Y097035*
X039102Y096990*
X039075Y096944*
X039052Y096898*
X039034Y096851*
X039020Y096803*
X039009Y096753*
X039006Y096724*
Y096348*
X039009Y096319*
X039020Y096269*
X039034Y096221*
X039052Y096174*
X039075Y096128*
X039102Y096082*
X039135Y096037*
X039172Y095992*
X039202Y095961*
X039224Y095944*
X039242Y095921*
X039273Y095891*
X039318Y095854*
X039363Y095822*
X039409Y095794*
X039455Y095771*
X039502Y095753*
X039550Y095739*
X039600Y095728*
X039629Y095725*
X048966*
X048978Y095726*
X049021Y095733*
X049061Y095743*
X049098Y095755*
X049132Y095770*
X049163Y095787*
X049193Y095806*
X049221Y095828*
X049239Y095845*
X049251Y095862*
X049426Y095995*
X049629Y096080*
X049847Y096108*
X050065Y096080*
X050268Y095995*
X050442Y095862*
X050576Y095687*
X050660Y095484*
X050689Y095266*
X050660Y095048*
X050576Y094845*
X050442Y094671*
X050426Y094658*
X050409Y094640*
X050387Y094612*
X050368Y094582*
X050351Y094551*
X050336Y094517*
X050324Y094480*
X050314Y094440*
X050307Y094398*
X050306Y094385*
Y092556*
X063179Y079682*
X063179*
X063219Y079691*
X063254Y079702*
X063285Y079715*
X063312Y079729*
X063335Y079744*
X063356Y079761*
X063382Y079786*
X063382Y079787*
X063401Y079812*
X063576Y079945*
X063779Y080030*
X063997Y080058*
X064215Y080030*
X064418Y079945*
X064592Y079812*
X064605Y079795*
X064623Y079778*
X064651Y079756*
X064681Y079737*
X064712Y079720*
X064746Y079705*
X064783Y079693*
X064822Y079683*
X064865Y079676*
X064878Y079675*
X066616*
X066628Y079676*
X066671Y079683*
X066711Y079693*
X066748Y079705*
X066782Y079720*
X066813Y079737*
X066843Y079756*
X066871Y079778*
X066889Y079795*
X066901Y079812*
X067076Y079945*
X067279Y080030*
X067497Y080058*
X067715Y080030*
X067918Y079945*
X068092Y079812*
X068226Y079637*
X068310Y079434*
X068339Y079216*
X068310Y078998*
X068226Y078795*
X068092Y078621*
X067918Y078487*
X067715Y078403*
X067497Y078374*
X067279Y078403*
X067076Y078487*
X066901Y078621*
X066889Y078637*
X066871Y078654*
X066843Y078676*
X066813Y078695*
X066782Y078712*
X066748Y078727*
X066711Y078739*
X066671Y078749*
X066628Y078756*
X066616Y078757*
X064878*
X064865Y078756*
X064822Y078749*
X064783Y078739*
X064746Y078727*
X064712Y078712*
X064681Y078695*
X064651Y078676*
X064623Y078654*
X064605Y078637*
X064592Y078621*
X064576Y078608*
X064559Y078590*
X064537Y078562*
X064518Y078532*
X064501Y078501*
X064486Y078467*
X064474Y078430*
X064464Y078391*
X064457Y078348*
X064456Y078335*
Y069790*
X064465Y069736*
X064480Y069692*
X064497Y069660*
X064517Y069636*
X064541Y069616*
X064573Y069599*
X064617Y069584*
X064670Y069575*
X073216*
X073228Y069576*
X073271Y069583*
X073311Y069593*
X073348Y069605*
X073382Y069620*
X073413Y069637*
X073443Y069656*
X073471Y069678*
X073489Y069695*
X073501Y069712*
X073676Y069845*
X073879Y069930*
X074097Y069958*
X074315Y069930*
X074518Y069845*
X074692Y069712*
X074826Y069537*
X074910Y069334*
X074939Y069116*
X074910Y068898*
X074826Y068695*
X074692Y068521*
X074518Y068387*
X074315Y068303*
X074097Y068274*
X073879Y068303*
X073676Y068387*
X073501Y068521*
X073489Y068537*
X073471Y068554*
X073443Y068576*
X073413Y068595*
X073382Y068612*
X073348Y068627*
X073311Y068639*
X073271Y068649*
X073228Y068656*
X073216Y068657*
X064670*
X064617Y068648*
X064573Y068633*
X064541Y068616*
X064517Y068596*
X064497Y068572*
X064480Y068540*
X064465Y068496*
X064456Y068443*
Y064506*
X064698Y064264*
X064708Y064256*
X064744Y064230*
X064779Y064209*
X064813Y064192*
X064847Y064178*
X064882Y064168*
X064916Y064161*
X064952Y064156*
X064976Y064156*
X064997Y064158*
X065215Y064130*
X065418Y064045*
X065592Y063912*
X065726Y063737*
X065810Y063534*
X065839Y063316*
X065810Y063098*
X065726Y062895*
X065592Y062721*
X065418Y062587*
X065215Y062503*
X064997Y062474*
X064779Y062503*
X064576Y062587*
X064401Y062721*
X064268Y062895*
X064183Y063098*
X064155Y063316*
X064157Y063337*
X064157Y063361*
X064152Y063397*
X064145Y063431*
X064135Y063466*
X064121Y063500*
X064104Y063534*
X064083Y063569*
X064057Y063605*
X064049Y063615*
X063672Y063992*
X063573Y064140*
X063538Y064316*
Y069116*
Y078335*
X063537Y078348*
X063530Y078391*
X063520Y078430*
X063508Y078467*
X063493Y078501*
X063476Y078532*
X063457Y078562*
X063435Y078590*
X063418Y078608*
X063401Y078621*
X063382Y078646*
X063382Y078646*
X063356Y078672*
X063335Y078688*
X063312Y078704*
X063285Y078717*
X063254Y078730*
X063219Y078741*
X063179Y078750*
X063135Y078756*
X063125Y078757*
X062997*
X062821Y078792*
X062672Y078892*
X049522Y092042*
X049423Y092191*
X049388Y092366*
Y094385*
X049387Y094398*
X049380Y094441*
X049370Y094480*
X049358Y094517*
X049343Y094551*
X049326Y094582*
X049307Y094612*
X049285Y094640*
X049268Y094658*
X049251Y094671*
X049239Y094687*
X049221Y094704*
X049193Y094726*
X049163Y094745*
X049132Y094762*
X049098Y094777*
X049061Y094789*
X049021Y094799*
X048978Y094806*
X048966Y094807*
X039629*
X039600Y094804*
X039550Y094793*
X039502Y094779*
X039455Y094761*
X039409Y094738*
X039363Y094711*
X039318Y094678*
X039273Y094641*
X039242Y094611*
X039224Y094589*
X039026Y094436*
X038795Y094341*
X038547Y094308*
X038299Y094341*
X038068Y094436*
X037869Y094589*
X037717Y094787*
X037621Y095018*
X037589Y095266*
X037621Y095514*
X037717Y095745*
X037869Y095944*
X037892Y095961*
X037922Y095992*
X037959Y096037*
X037991Y096082*
X038019Y096128*
X038041Y096174*
X038060Y096221*
X038074Y096269*
X038084Y096319*
X038088Y096348*
Y096724*
X038084Y096753*
X038074Y096803*
X038060Y096851*
X038041Y096898*
X038019Y096944*
X037991Y096990*
X037959Y097035*
X037922Y097080*
X037892Y097111*
X037869Y097129*
X037717Y097327*
X037621Y097558*
X037589Y097806*
X037621Y098054*
X037717Y098285*
X037869Y098484*
X038068Y098636*
X038299Y098732*
X038547Y098764*
G37*
G36*
X064597Y094658D02*
X064815Y094630D01*
X065018Y094545*
X065192Y094412*
X065326Y094237*
X065410Y094034*
X065439Y093816*
X065410Y093598*
X065326Y093395*
X065192Y093221*
X065018Y093087*
X064815Y093003*
X064597Y092974*
X064576Y092977*
X064552Y092976*
X064516Y092972*
X064482Y092964*
X064447Y092954*
X064413Y092940*
X064379Y092923*
X064344Y092902*
X064308Y092877*
X064298Y092868*
X063901Y092472*
X063985Y092376*
X064076Y092445*
X064279Y092530*
X064497Y092558*
X064715Y092530*
X064918Y092445*
X065092Y092312*
X065226Y092137*
X065310Y091934*
X065339Y091716*
X065310Y091498*
X065226Y091295*
X065092Y091121*
X065076Y091108*
X065059Y091090*
X065037Y091062*
X065018Y091032*
X065001Y091001*
X064986Y090967*
X064974Y090930*
X064964Y090891*
X064957Y090848*
X064956Y090835*
Y085306*
X069521Y080741*
X069621Y080592*
X069656Y080416*
Y077816*
X069621Y077641*
X069521Y077492*
X068821Y076792*
X068672Y076692*
X068497Y076657*
X067878*
X067865Y076656*
X067822Y076649*
X067783Y076639*
X067746Y076627*
X067712Y076612*
X067681Y076595*
X067651Y076576*
X067623Y076554*
X067605Y076537*
X067592Y076521*
X067418Y076387*
X067215Y076303*
X066997Y076274*
X066779Y076303*
X066576Y076387*
X066401Y076521*
X066268Y076695*
X066183Y076898*
X066155Y077116*
X066183Y077334*
X066268Y077537*
X066401Y077712*
X066576Y077845*
X066779Y077930*
X066997Y077958*
X067215Y077930*
X067418Y077845*
X067592Y077712*
X067605Y077695*
X067623Y077678*
X067651Y077656*
X067681Y077637*
X067712Y077620*
X067746Y077605*
X067783Y077593*
X067822Y077583*
X067865Y077576*
X067878Y077575*
X068307*
X068738Y078006*
Y080226*
X064172Y084792*
X064073Y084941*
X064038Y085116*
Y090835*
X064037Y090848*
X064030Y090891*
X064020Y090930*
X064008Y090967*
X063993Y091001*
X063976Y091032*
X063957Y091062*
X063935Y091090*
X063918Y091108*
X063901Y091121*
X063768Y091295*
X063683Y091498*
X063655Y091716*
X063683Y091934*
X063768Y092137*
X063837Y092228*
X063741Y092312*
X063123Y091693*
Y087597*
X063124Y087585*
X063131Y087542*
X063141Y087502*
X063153Y087465*
X063168Y087431*
X063185Y087400*
X063204Y087370*
X063226Y087342*
X063243Y087324*
X063259Y087312*
X063393Y087137*
X063477Y086934*
X063506Y086716*
X063477Y086498*
X063393Y086295*
X063259Y086121*
X063085Y085987*
X062882Y085903*
X062664Y085874*
X062446Y085903*
X062243Y085987*
X062068Y086121*
X061935Y086295*
X061850Y086498*
X061822Y086716*
X061850Y086934*
X061935Y087137*
X062068Y087312*
X062085Y087324*
X062102Y087342*
X062124Y087370*
X062143Y087400*
X062160Y087431*
X062175Y087465*
X062187Y087502*
X062197Y087542*
X062204Y087585*
X062205Y087597*
Y091883*
X062240Y092059*
X062339Y092208*
X063649Y093517*
X063657Y093527*
X063683Y093563*
X063704Y093598*
X063721Y093632*
X063735Y093667*
X063745Y093701*
X063752Y093736*
X063757Y093771*
X063757Y093795*
X063755Y093816*
X063783Y094034*
X063868Y094237*
X064001Y094412*
X064176Y094545*
X064379Y094630*
X064597Y094658*
G37*
G36*
X038674Y093722D02*
X038809Y093704D01*
X039053Y093603*
X039263Y093442*
X039424Y093232*
X039525Y092988*
X039543Y092853*
X038674*
Y093722*
G37*
G36*
Y100219D02*
X039543D01*
X039525Y100084*
X039424Y099840*
X039263Y099630*
X039053Y099469*
X038809Y099368*
X038674Y099350*
Y100219*
G37*
G36*
Y101342D02*
X038809Y101324D01*
X039053Y101223*
X039263Y101062*
X039424Y100852*
X039525Y100608*
X039543Y100473*
X038674*
Y101342*
G37*
G36*
X075497Y114720D02*
X083297D01*
X083375Y114704*
X083441Y114660*
X086341Y111760*
X086385Y111694*
X086401Y111616*
Y104301*
X088691Y102010*
X088735Y101944*
X088751Y101866*
Y101332*
X088809Y101324*
X089053Y101223*
X089263Y101062*
X089424Y100852*
X089525Y100608*
X089543Y100473*
X088547*
Y100219*
X089543*
X089525Y100084*
X089424Y099840*
X089263Y099630*
X089053Y099469*
X088809Y099368*
X088751Y099360*
Y098819*
X088790Y098741*
X088856Y098706*
X089026Y098636*
X089224Y098484*
X089377Y098285*
X089472Y098054*
X089505Y097806*
X089472Y097558*
X089377Y097327*
X089224Y097129*
X089026Y096976*
X088856Y096906*
X088790Y096871*
X088751Y096793*
Y096279*
X088790Y096201*
X088856Y096166*
X089026Y096096*
X089224Y095944*
X089377Y095745*
X089472Y095514*
X089505Y095266*
X089472Y095018*
X089377Y094787*
X089224Y094589*
X089026Y094436*
X088856Y094366*
X088790Y094331*
X088751Y094253*
Y093712*
X088809Y093704*
X089053Y093603*
X089263Y093442*
X089424Y093232*
X089525Y092988*
X089543Y092853*
X088547*
Y092599*
X089543*
X089525Y092464*
X089424Y092220*
X089263Y092010*
X089053Y091849*
X088809Y091748*
X088751Y091740*
Y091172*
X088809Y091164*
X089053Y091063*
X089263Y090902*
X089424Y090692*
X089525Y090448*
X089543Y090313*
X088547*
Y090059*
X089543*
X089525Y089924*
X089424Y089680*
X089263Y089470*
X089053Y089309*
X088809Y089208*
X088751Y089200*
Y088659*
X088790Y088581*
X088856Y088546*
X089026Y088476*
X089224Y088324*
X089377Y088125*
X089472Y087894*
X089505Y087646*
X089472Y087398*
X089377Y087167*
X089224Y086969*
X089026Y086816*
X088856Y086746*
X088790Y086711*
X088751Y086633*
Y086119*
X088790Y086041*
X088856Y086006*
X089026Y085936*
X089224Y085784*
X089377Y085585*
X089472Y085354*
X089505Y085106*
X089472Y084858*
X089377Y084627*
X089224Y084429*
X089026Y084276*
X088856Y084206*
X088790Y084171*
X088751Y084093*
Y083552*
X088809Y083544*
X089053Y083443*
X089263Y083282*
X089424Y083072*
X089525Y082828*
X089543Y082693*
X088547*
Y082439*
X089543*
X089525Y082304*
X089424Y082060*
X089263Y081850*
X089053Y081689*
X088809Y081588*
X088751Y081580*
Y081012*
X088809Y081004*
X089053Y080903*
X089263Y080742*
X089424Y080532*
X089525Y080288*
X089543Y080153*
X088547*
Y079899*
X089543*
X089525Y079764*
X089424Y079520*
X089263Y079310*
X089053Y079149*
X088809Y079048*
X088751Y079040*
Y078499*
X088790Y078421*
X088856Y078386*
X089026Y078316*
X089224Y078164*
X089377Y077965*
X089472Y077734*
X089505Y077486*
X089472Y077238*
X089377Y077007*
X089224Y076809*
X089026Y076656*
X088856Y076586*
X088790Y076551*
X088751Y076473*
Y075959*
X088790Y075881*
X088856Y075846*
X089026Y075776*
X089224Y075624*
X089377Y075425*
X089472Y075194*
X089505Y074946*
X089472Y074698*
X089377Y074467*
X089224Y074269*
X089026Y074116*
X088856Y074046*
X088790Y074011*
X088751Y073933*
Y073392*
X088809Y073384*
X089053Y073283*
X089263Y073122*
X089424Y072912*
X089525Y072668*
X089543Y072533*
X088547*
Y072279*
X089543*
X089525Y072144*
X089424Y071900*
X089263Y071690*
X089053Y071529*
X088809Y071428*
X088751Y071420*
Y070824*
X088772Y070795*
X088795Y070792*
X089026Y070696*
X089224Y070544*
X089377Y070345*
X089472Y070114*
X089505Y069866*
X089472Y069618*
X089377Y069387*
X089224Y069189*
X089026Y069036*
X088795Y068941*
X088751Y068908*
Y068284*
X088772Y068255*
X088795Y068252*
X089026Y068156*
X089224Y068004*
X089377Y067805*
X089472Y067574*
X089505Y067326*
X089472Y067078*
X089377Y066847*
X089224Y066649*
X089026Y066496*
X088795Y066401*
X088751Y066368*
Y065744*
X088772Y065715*
X088795Y065712*
X089026Y065616*
X089224Y065464*
X089377Y065265*
X089472Y065034*
X089505Y064786*
X089472Y064538*
X089377Y064307*
X089224Y064109*
X089026Y063956*
X088795Y063861*
X088751Y063828*
Y063204*
X088772Y063175*
X088795Y063172*
X089026Y063076*
X089224Y062924*
X089377Y062725*
X089472Y062494*
X089505Y062246*
X089472Y061998*
X089377Y061767*
X089224Y061569*
X089026Y061416*
X088795Y061321*
X088751Y061288*
Y060664*
X088772Y060635*
X088795Y060632*
X089026Y060536*
X089224Y060384*
X089377Y060185*
X089472Y059954*
X089505Y059706*
X089472Y059458*
X089377Y059227*
X089224Y059029*
X089026Y058876*
X088795Y058781*
X088751Y058748*
Y058124*
X088772Y058095*
X088795Y058092*
X089026Y057996*
X089224Y057844*
X089377Y057645*
X089472Y057414*
X089505Y057166*
X089472Y056918*
X089377Y056687*
X089224Y056489*
X089026Y056336*
X088795Y056241*
X088751Y056208*
Y055584*
X088772Y055555*
X088795Y055552*
X089026Y055456*
X089224Y055304*
X089377Y055105*
X089472Y054874*
X089505Y054626*
X089472Y054378*
X089377Y054147*
X089224Y053949*
X089026Y053796*
X088795Y053701*
X088751Y053668*
Y053090*
X089551*
Y052213*
X088547*
Y052086*
X088420*
Y051082*
X087790*
X087785Y051058*
X087741Y050992*
Y050992*
X086821Y050072*
X086755Y050028*
X086677Y050012*
X086601*
Y047096*
X086728Y047064*
X086873Y047335*
X087123Y047640*
X087428Y047890*
X087776Y048076*
X088154Y048191*
X088420Y048217*
Y046216*
Y044215*
X088154Y044241*
X087776Y044356*
X087428Y044542*
X087123Y044792*
X086873Y045097*
X086728Y045368*
X086601Y045336*
Y040616*
Y040616*
X086585Y040538*
X086541Y040472*
X084141Y038072*
X084075Y038028*
X083997Y038012*
X050497*
X050419Y038028*
X050353Y038072*
X049653Y038772*
X049608Y038838*
X049593Y038916*
Y040516*
X049608Y040594*
X049653Y040660*
X049653*
X049902Y040909*
X049919Y040921*
X049933Y040935*
X049951Y040942*
X049968Y040954*
X049988Y040958*
X050006Y040965*
X050026*
X050046Y040969*
X050066Y040965*
X050086*
X050104Y040958*
X050124Y040954*
X050141Y040942*
X050159Y040935*
X050267Y040863*
X050378Y040922*
X050384Y040929*
X050391Y040935*
X050450Y041046*
X050378Y041154*
X050370Y041172*
X050359Y041189*
X050355Y041209*
X050348Y041227*
Y041247*
X050344Y041267*
X050348Y041287*
Y041307*
X050355Y041325*
X050359Y041345*
X050370Y041362*
X050378Y041380*
X050392Y041394*
X050404Y041411*
X055053Y046060*
X055119Y046104*
X055197Y046120*
X055566*
X055573Y046119*
X055579Y046120*
X055611Y046111*
X055644Y046104*
X055650Y046101*
X055656Y046099*
X055682Y046079*
X055710Y046060*
X055714Y046055*
X055719Y046051*
X055736Y046022*
X055754Y045994*
X055756Y045987*
X055759Y045982*
X055769Y045951*
X055920Y045877*
X055924Y045878*
X055979Y045901*
X056297Y045943*
X056614Y045901*
X056670Y045878*
X056674Y045877*
X056824Y045951*
X056835Y045982*
X056838Y045987*
X056839Y045994*
X056858Y046022*
X056875Y046051*
X056880Y046055*
X056884Y046060*
X056911Y046079*
X056938Y046099*
X056944Y046101*
X056950Y046104*
X056982Y046111*
X057014Y046120*
X057021Y046119*
X057028Y046120*
X058697*
X058775Y046104*
X058841Y046060*
Y046060*
X063475Y041426*
X082019*
X083887Y043294*
Y053696*
X083928Y054009*
X084049Y054301*
X084241Y054552*
X084787Y055097*
Y062216*
X084828Y062529*
X084949Y062821*
X085141Y063072*
X085146Y063076*
X085169Y063136*
X085193Y063235*
X085291Y064715*
Y075016*
Y084916*
Y087516*
Y095034*
X083712Y096612*
X044297*
X044219Y096628*
X044153Y096672*
X040953Y099872*
X040908Y099938*
X040893Y100016*
Y113316*
X040908Y113394*
X040953Y113460*
X041353Y113860*
X041419Y113904*
X041497Y113920*
X043897*
X043975Y113904*
X044041Y113860*
X045341Y112560*
X045385Y112494*
X045401Y112416*
Y111016*
X045385Y110938*
X045341Y110872*
X043501Y109032*
Y102401*
X046981Y098920*
X082912*
X083693Y099701*
Y108632*
X081412Y110912*
X076727*
X076708Y110916*
X076688*
X076669Y110924*
X076649Y110928*
X076633Y110939*
X076614Y110947*
X076600Y110961*
X076583Y110972*
X076572Y110989*
X076558Y111003*
X076550Y111021*
X076539Y111038*
X076535Y111058*
X076527Y111076*
X076502Y111203*
X076375Y111218*
X076297Y111207*
X076036Y111242*
X075793Y111343*
X075584Y111503*
X075474Y111645*
X075420Y111711*
X075301Y111676*
X075289Y111668*
X075270Y111660*
X075253Y111649*
X075234Y111645*
X075215Y111638*
X075195*
X075175Y111634*
X075156Y111638*
X075136*
X075117Y111645*
X075097Y111649*
X075081Y111660*
X075062Y111668*
X075048Y111682*
X075031Y111693*
X074453Y112272*
X074408Y112338*
X074393Y112416*
Y113616*
X074408Y113694*
X074453Y113760*
X075353Y114660*
X075419Y114704*
X075497Y114720*
G37*
G36*
X037551Y100219D02*
X038420D01*
Y099350*
X038285Y099368*
X038041Y099469*
X037831Y099630*
X037670Y099840*
X037569Y100084*
X037551Y100219*
G37*
G36*
Y090059D02*
X038420D01*
Y089190*
X038285Y089208*
X038041Y089309*
X037831Y089470*
X037670Y089680*
X037569Y089924*
X037551Y090059*
G37*
G36*
X038674D02*
X039543D01*
X039525Y089924*
X039424Y089680*
X039263Y089470*
X039053Y089309*
X038809Y089208*
X038674Y089190*
Y090059*
G37*
G36*
X062697Y094858D02*
X062915Y094830D01*
X063118Y094745*
X063292Y094612*
X063426Y094437*
X063510Y094234*
X063539Y094016*
X063510Y093798*
X063426Y093595*
X063292Y093421*
X063118Y093287*
X062915Y093203*
X062697Y093174*
X062676Y093177*
X062652Y093176*
X062616Y093172*
X062582Y093164*
X062547Y093154*
X062513Y093140*
X062479Y093123*
X062444Y093102*
X062408Y093077*
X062398Y093069*
X061056Y091726*
Y087597*
X061057Y087585*
X061064Y087542*
X061074Y087502*
X061086Y087465*
X061101Y087431*
X061118Y087400*
X061137Y087370*
X061159Y087342*
X061176Y087324*
X061192Y087312*
X061326Y087137*
X061410Y086934*
X061439Y086716*
X061410Y086498*
X061326Y086295*
X061192Y086121*
X061018Y085987*
X060815Y085903*
X060597Y085874*
X060379Y085903*
X060176Y085987*
X060001Y086121*
X059868Y086295*
X059783Y086498*
X059755Y086716*
X059783Y086934*
X059868Y087137*
X060001Y087312*
X060018Y087324*
X060035Y087342*
X060057Y087370*
X060076Y087400*
X060093Y087431*
X060108Y087465*
X060120Y087502*
X060130Y087542*
X060137Y087585*
X060138Y087597*
Y091916*
X060173Y092092*
X060272Y092241*
X061749Y093717*
X061757Y093727*
X061783Y093763*
X061804Y093798*
X061821Y093832*
X061835Y093867*
X061845Y093901*
X061852Y093936*
X061857Y093971*
X061857Y093995*
X061855Y094016*
X061883Y094234*
X061968Y094437*
X062101Y094612*
X062276Y094745*
X062479Y094830*
X062697Y094858*
G37*
G36*
X060097Y095258D02*
X060315Y095230D01*
X060518Y095145*
X060692Y095012*
X060826Y094837*
X060910Y094634*
X060939Y094416*
X060910Y094198*
X060826Y093995*
X060692Y093821*
X060518Y093687*
X060315Y093603*
X060097Y093574*
X060076Y093577*
X060052Y093576*
X060016Y093572*
X059982Y093564*
X059947Y093554*
X059913Y093540*
X059879Y093523*
X059844Y093502*
X059808Y093477*
X059798Y093469*
X059156Y092826*
Y088897*
X059157Y088885*
X059164Y088842*
X059174Y088802*
X059186Y088765*
X059201Y088731*
X059218Y088700*
X059237Y088670*
X059259Y088642*
X059276Y088624*
X059292Y088612*
X059426Y088437*
X059510Y088234*
X059539Y088016*
X059510Y087798*
X059426Y087595*
X059292Y087421*
X059118Y087287*
X058915Y087203*
X058697Y087174*
X058479Y087203*
X058276Y087287*
X058101Y087421*
X057968Y087595*
X057883Y087798*
X057855Y088016*
X057883Y088234*
X057968Y088437*
X058101Y088612*
X058118Y088624*
X058135Y088642*
X058157Y088670*
X058176Y088700*
X058193Y088731*
X058208Y088765*
X058220Y088802*
X058230Y088842*
X058237Y088885*
X058238Y088897*
Y093016*
X058273Y093192*
X058372Y093341*
X059149Y094117*
X059157Y094127*
X059183Y094163*
X059204Y094198*
X059221Y094232*
X059235Y094267*
X059245Y094301*
X059252Y094336*
X059257Y094371*
X059257Y094395*
X059255Y094416*
X059283Y094634*
X059368Y094837*
X059501Y095012*
X059676Y095145*
X059879Y095230*
X060097Y095258*
G37*
G36*
X037551Y092599D02*
X038420D01*
Y091730*
X038285Y091748*
X038041Y091849*
X037831Y092010*
X037670Y092220*
X037569Y092464*
X037551Y092599*
G37*
G36*
X038674D02*
X039543D01*
X039525Y092464*
X039424Y092220*
X039263Y092010*
X039053Y091849*
X038809Y091748*
X038674Y091730*
Y092599*
G37*
G36*
Y091182D02*
X038809Y091164D01*
X039053Y091063*
X039263Y090902*
X039424Y090692*
X039525Y090448*
X039543Y090313*
X038674*
Y091182*
G37*
G36*
X038420D02*
Y090313D01*
X037551*
X037569Y090448*
X037670Y090692*
X037831Y090902*
X038041Y091063*
X038285Y091164*
X038420Y091182*
G37*
%LNbottomlayer-6*%
%LPC*%
G36*
X045516Y075081D02*
X045561Y075124D01*
X045608Y075163*
X045656Y075197*
X045704Y075226*
X045754Y075251*
X045804Y075271*
X045855Y075286*
X045907Y075297*
X045961Y075303*
X046015Y075305*
X045386Y075934*
X045384Y075880*
X045378Y075827*
X045367Y075774*
X045351Y075723*
X045331Y075673*
X045307Y075623*
X045277Y075575*
X045243Y075527*
X045205Y075481*
X045162Y075435*
X045516Y075081*
G37*
G36*
X043347Y060671D02*
X043345Y060608D01*
X043339Y060548*
X043329Y060490*
X043316Y060435*
X043298Y060383*
X043277Y060333*
X043252Y060286*
X043222Y060241*
X043189Y060199*
X043152Y060160*
X044041*
X044004Y060199*
X043971Y060241*
X043942Y060286*
X043917Y060333*
X043896Y060383*
X043878Y060435*
X043864Y060490*
X043855Y060548*
X043849Y060608*
X043847Y060671*
X043347*
G37*
G36*
X043202Y056475D02*
X043156Y056432D01*
X043110Y056394*
X043062Y056360*
X043014Y056330*
X042964Y056306*
X042914Y056286*
X042863Y056270*
X042810Y056259*
X042757Y056253*
X042703Y056251*
X043332Y055622*
X043334Y055676*
X043340Y055730*
X043351Y055782*
X043366Y055833*
X043386Y055883*
X043411Y055933*
X043440Y055981*
X043474Y056029*
X043513Y056076*
X043556Y056121*
X043202Y056475*
G37*
G36*
X046624Y073289D02*
X046670Y073332D01*
X046717Y073370*
X046764Y073403*
X046813Y073431*
X046862Y073453*
X046912Y073470*
X046963Y073482*
X047015Y073488*
X047067Y073490*
X047120Y073486*
X046565Y074180*
X046558Y074127*
X046546Y074074*
X046531Y074023*
X046512Y073972*
X046488Y073922*
X046461Y073873*
X046430Y073825*
X046395Y073778*
X046356Y073731*
X046313Y073686*
X046624Y073289*
G37*
G36*
X059592Y093557D02*
X059637Y093600D01*
X059684Y093639*
X059732Y093673*
X059780Y093702*
X059830Y093726*
X059880Y093747*
X059931Y093762*
X059983Y093773*
X060037Y093779*
X060091Y093781*
X059462Y094410*
X059460Y094356*
X059454Y094303*
X059443Y094250*
X059427Y094199*
X059407Y094149*
X059383Y094099*
X059353Y094051*
X059319Y094003*
X059281Y093957*
X059238Y093911*
X059592Y093557*
G37*
G36*
X058447Y088981D02*
X058445Y088918D01*
X058439Y088858*
X058429Y088800*
X058416Y088745*
X058398Y088693*
X058377Y088643*
X058352Y088596*
X058322Y088551*
X058289Y088509*
X058252Y088470*
X059141*
X059104Y088509*
X059071Y088551*
X059042Y088596*
X059017Y088643*
X058996Y088693*
X058978Y088745*
X058964Y088800*
X058955Y088858*
X058949Y088918*
X058947Y088981*
X058447*
G37*
G36*
X067962Y077366D02*
X067899Y077368D01*
X067839Y077374*
X067781Y077384*
X067726Y077397*
X067674Y077415*
X067624Y077436*
X067576Y077461*
X067532Y077491*
X067490Y077524*
X067450Y077561*
Y076672*
X067490Y076709*
X067532Y076742*
X067576Y076771*
X067624Y076796*
X067674Y076817*
X067726Y076835*
X067781Y076849*
X067839Y076858*
X067899Y076864*
X067962Y076866*
Y077366*
G37*
G36*
X064747Y090751D02*
X064749Y090814D01*
X064755Y090874*
X064764Y090932*
X064778Y090987*
X064796Y091039*
X064817Y091089*
X064842Y091137*
X064871Y091181*
X064904Y091223*
X064941Y091263*
X064052*
X064089Y091223*
X064122Y091181*
X064152Y091137*
X064177Y091089*
X064198Y091039*
X064216Y090987*
X064229Y090932*
X064239Y090874*
X064245Y090814*
X064247Y090751*
X064747*
G37*
G36*
X039704Y095516D02*
X039634Y095519D01*
X039567Y095527*
X039500Y095541*
X039436Y095560*
X039373Y095585*
X039311Y095615*
X039252Y095651*
X039194Y095692*
X039137Y095739*
X039083Y095791*
Y094741*
X039137Y094793*
X039194Y094840*
X039252Y094881*
X039311Y094917*
X039373Y094947*
X039436Y094972*
X039500Y094991*
X039567Y095005*
X039634Y095013*
X039704Y095016*
Y095516*
G37*
G36*
X038297Y096423D02*
X038294Y096354D01*
X038286Y096286*
X038272Y096219*
X038253Y096155*
X038228Y096092*
X038198Y096031*
X038162Y095971*
X038121Y095913*
X038074Y095856*
X038022Y095802*
X039072*
X039020Y095856*
X038973Y095913*
X038932Y095971*
X038896Y096031*
X038866Y096092*
X038841Y096155*
X038822Y096219*
X038808Y096286*
X038800Y096354*
X038797Y096423*
X038297*
G37*
G36*
X038797Y096649D02*
X038800Y096719D01*
X038808Y096786*
X038822Y096853*
X038841Y096917*
X038866Y096980*
X038896Y097042*
X038932Y097101*
X038973Y097159*
X039020Y097216*
X039072Y097270*
X038022*
X038074Y097216*
X038121Y097159*
X038162Y097101*
X038198Y097042*
X038228Y096980*
X038253Y096917*
X038272Y096853*
X038286Y096786*
X038294Y096719*
X038297Y096649*
X038797*
G37*
G36*
X064247Y069866D02*
X063747Y069116D01*
X064247Y068366*
X064252Y068461*
X064267Y068546*
X064292Y068621*
X064327Y068686*
X064372Y068741*
X064427Y068786*
X064492Y068821*
X064567Y068846*
X064652Y068861*
X064747Y068866*
Y069366*
X064652Y069371*
X064567Y069386*
X064492Y069411*
X064427Y069446*
X064372Y069491*
X064327Y069546*
X064292Y069611*
X064267Y069686*
X064252Y069771*
X064247Y069866*
G37*
G36*
X066532Y078966D02*
X066595Y078964D01*
X066655Y078958*
X066713Y078949*
X066768Y078935*
X066820Y078917*
X066870Y078896*
X066917Y078871*
X066962Y078842*
X067004Y078809*
X067043Y078772*
Y079661*
X067004Y079624*
X066962Y079591*
X066917Y079561*
X066870Y079536*
X066820Y079515*
X066768Y079497*
X066713Y079484*
X066655Y079474*
X066595Y079468*
X066532Y079466*
Y078966*
G37*
G36*
X048882Y095016D02*
X048945Y095014D01*
X049005Y095008*
X049063Y094999*
X049118Y094985*
X049170Y094967*
X049220Y094946*
X049267Y094921*
X049312Y094892*
X049354Y094859*
X049393Y094822*
Y095711*
X049354Y095674*
X049312Y095641*
X049267Y095611*
X049220Y095586*
X049170Y095565*
X049118Y095547*
X049063Y095534*
X049005Y095524*
X048945Y095518*
X048882Y095516*
Y095016*
G37*
G36*
X050097Y094301D02*
X050099Y094364D01*
X050105Y094424*
X050114Y094482*
X050128Y094537*
X050146Y094589*
X050167Y094639*
X050192Y094687*
X050221Y094731*
X050254Y094773*
X050291Y094813*
X049402*
X049439Y094773*
X049472Y094731*
X049502Y094687*
X049527Y094639*
X049548Y094589*
X049566Y094537*
X049579Y094482*
X049589Y094424*
X049595Y094364*
X049597Y094301*
X050097*
G37*
G36*
X064138Y063821D02*
X064181Y063776D01*
X064219Y063729*
X064253Y063681*
X064283Y063633*
X064307Y063583*
X064327Y063533*
X064343Y063482*
X064354Y063430*
X064360Y063376*
X064362Y063322*
X064991Y063951*
X064937Y063953*
X064883Y063959*
X064831Y063970*
X064780Y063986*
X064730Y064006*
X064680Y064030*
X064632Y064060*
X064584Y064094*
X064537Y064132*
X064491Y064175*
X064138Y063821*
G37*
G36*
X063032Y078966D02*
X063097Y078964D01*
X063159Y078959*
X063217Y078950*
X063272Y078938*
X063323Y078922*
X063371Y078903*
X063415Y078880*
X063455Y078854*
X063492Y078824*
X063526Y078790*
Y079642*
X063492Y079609*
X063455Y079579*
X063415Y079552*
X063371Y079529*
X063323Y079510*
X063272Y079494*
X063217Y079482*
X063159Y079473*
X063097Y079468*
X063032Y079466*
Y078966*
G37*
G36*
X064962Y079466D02*
X064899Y079468D01*
X064839Y079474*
X064781Y079484*
X064726Y079497*
X064674Y079515*
X064624Y079536*
X064576Y079561*
X064532Y079591*
X064490Y079624*
X064450Y079661*
Y078772*
X064490Y078809*
X064532Y078842*
X064576Y078871*
X064624Y078896*
X064674Y078917*
X064726Y078935*
X064781Y078949*
X064839Y078958*
X064899Y078964*
X064962Y078966*
Y079466*
G37*
G36*
X064247Y078251D02*
X064249Y078314D01*
X064255Y078374*
X064264Y078432*
X064278Y078487*
X064296Y078539*
X064317Y078589*
X064342Y078637*
X064371Y078681*
X064404Y078723*
X064441Y078763*
X063552*
X063589Y078723*
X063622Y078681*
X063652Y078637*
X063677Y078589*
X063698Y078539*
X063716Y078487*
X063729Y078432*
X063739Y078374*
X063745Y078314*
X063747Y078251*
X064247*
G37*
G36*
X073132Y068866D02*
X073195Y068864D01*
X073255Y068858*
X073313Y068849*
X073368Y068835*
X073420Y068817*
X073470Y068796*
X073517Y068771*
X073562Y068742*
X073604Y068709*
X073643Y068672*
Y069561*
X073604Y069524*
X073562Y069491*
X073517Y069461*
X073470Y069436*
X073420Y069415*
X073368Y069397*
X073313Y069384*
X073255Y069374*
X073195Y069368*
X073132Y069366*
Y068866*
G37*
G36*
X068847Y092751D02*
X068849Y092814D01*
X068855Y092874*
X068864Y092932*
X068878Y092987*
X068896Y093039*
X068917Y093089*
X068942Y093137*
X068971Y093181*
X069004Y093223*
X069041Y093263*
X068152*
X068189Y093223*
X068222Y093181*
X068252Y093137*
X068277Y093089*
X068298Y093039*
X068316Y092987*
X068329Y092932*
X068339Y092874*
X068345Y092814*
X068347Y092751*
X068847*
G37*
G36*
X038297Y086263D02*
X038294Y086194D01*
X038286Y086126*
X038272Y086059*
X038253Y085995*
X038228Y085932*
X038198Y085871*
X038162Y085811*
X038121Y085753*
X038074Y085696*
X038022Y085642*
X039072*
X039020Y085696*
X038973Y085753*
X038932Y085811*
X038896Y085871*
X038866Y085932*
X038841Y085995*
X038822Y086059*
X038808Y086126*
X038800Y086194*
X038797Y086263*
X038297*
G37*
G36*
X039704Y085356D02*
X039634Y085359D01*
X039567Y085367*
X039500Y085381*
X039436Y085400*
X039373Y085425*
X039311Y085455*
X039252Y085491*
X039194Y085532*
X039137Y085579*
X039083Y085631*
Y084581*
X039137Y084633*
X039194Y084680*
X039252Y084721*
X039311Y084757*
X039373Y084787*
X039436Y084812*
X039500Y084831*
X039567Y084845*
X039634Y084853*
X039704Y084856*
Y085356*
G37*
G36*
X038797Y086489D02*
X038800Y086559D01*
X038808Y086626*
X038822Y086693*
X038841Y086757*
X038866Y086820*
X038896Y086882*
X038932Y086941*
X038973Y086999*
X039020Y087056*
X039072Y087110*
X038022*
X038074Y087056*
X038121Y086999*
X038162Y086941*
X038198Y086882*
X038228Y086820*
X038253Y086757*
X038272Y086693*
X038286Y086626*
X038294Y086559*
X038297Y086489*
X038797*
G37*
G36*
X070662Y061966D02*
X070599Y061968D01*
X070539Y061974*
X070481Y061984*
X070426Y061997*
X070374Y062015*
X070324Y062036*
X070276Y062061*
X070232Y062091*
X070190Y062124*
X070150Y062161*
Y061272*
X070190Y061309*
X070232Y061342*
X070276Y061371*
X070324Y061396*
X070374Y061417*
X070426Y061435*
X070481Y061449*
X070539Y061458*
X070599Y061464*
X070662Y061466*
Y061966*
G37*
G36*
X068732Y061466D02*
X068795Y061464D01*
X068855Y061458*
X068913Y061449*
X068968Y061435*
X069020Y061417*
X069070Y061396*
X069117Y061371*
X069162Y061342*
X069204Y061309*
X069243Y061272*
Y062161*
X069204Y062124*
X069162Y062091*
X069117Y062061*
X069070Y062036*
X069020Y062015*
X068968Y061997*
X068913Y061984*
X068855Y061974*
X068795Y061968*
X068732Y061966*
Y061466*
G37*
G36*
X087538Y074446D02*
X088011Y074421D01*
Y075471*
X088002Y075466*
X087985Y075462*
X087958Y075458*
X087881Y075452*
X087623Y075446*
X087538Y075446*
Y074446*
G37*
G36*
Y084606D02*
X088011Y084581D01*
Y085631*
X088002Y085626*
X087985Y085622*
X087958Y085618*
X087881Y085612*
X087623Y085606*
X087538Y085606*
Y084606*
G37*
G36*
Y087146D02*
X088011Y087121D01*
Y088171*
X088002Y088166*
X087985Y088162*
X087958Y088158*
X087881Y088152*
X087623Y088146*
X087538Y088146*
Y087146*
G37*
G36*
Y094766D02*
X088011Y094741D01*
Y095791*
X088002Y095786*
X087985Y095782*
X087958Y095778*
X087881Y095772*
X087623Y095766*
X087538Y095766*
Y094766*
G37*
G36*
Y097306D02*
X088011Y097281D01*
Y098331*
X088002Y098326*
X087985Y098322*
X087958Y098318*
X087881Y098312*
X087623Y098306*
X087538Y098306*
Y097306*
G37*
G36*
X082997Y098316D02*
X084497Y097316D01*
X085997Y098316*
X085807Y098326*
X085637Y098356*
X085487Y098406*
X085357Y098476*
X085247Y098566*
X085157Y098676*
X085087Y098806*
X085037Y098956*
X085007Y099126*
X084997Y099316*
X083997*
X083987Y099126*
X083957Y098956*
X083907Y098806*
X083837Y098676*
X083747Y098566*
X083637Y098476*
X083507Y098406*
X083357Y098356*
X083187Y098326*
X082997Y098316*
G37*
G36*
X085497Y065082D02*
X085495Y064709D01*
X085395Y063204*
X085364Y063076*
X085329Y062982*
X085289Y062923*
X086704*
X086665Y062982*
X086630Y063076*
X086599Y063204*
X086572Y063368*
X086530Y063800*
X086499Y064709*
X086497Y065082*
X085497*
G37*
G36*
X042869Y111082D02*
X042934Y111145D01*
X043181Y111363*
X043216Y111386*
X043245Y111403*
X043270Y111413*
X043289Y111416*
X042497Y112208*
X042494Y112189*
X042484Y112164*
X042467Y112135*
X042444Y112101*
X042414Y112061*
X042333Y111967*
X042162Y111789*
X042869Y111082*
G37*
G36*
X077401Y112716D02*
X077311Y112717D01*
X076982Y112738*
X076941Y112745*
X076908Y112754*
X076884Y112765*
X076868Y112776*
Y111656*
X076884Y111668*
X076908Y111678*
X076941Y111687*
X076982Y111695*
X077031Y111701*
X077154Y111711*
X077401Y111716*
Y112716*
G37*
G36*
X062192Y093157D02*
X062237Y093200D01*
X062284Y093239*
X062332Y093273*
X062380Y093302*
X062430Y093326*
X062480Y093347*
X062531Y093362*
X062583Y093373*
X062637Y093379*
X062691Y093381*
X062062Y094010*
X062060Y093956*
X062054Y093903*
X062043Y093850*
X062027Y093799*
X062007Y093749*
X061983Y093699*
X061953Y093651*
X061919Y093603*
X061881Y093557*
X061838Y093511*
X062192Y093157*
G37*
G36*
X060347Y087681D02*
X060345Y087618D01*
X060339Y087558*
X060329Y087500*
X060316Y087445*
X060298Y087393*
X060277Y087343*
X060252Y087296*
X060222Y087251*
X060189Y087209*
X060152Y087170*
X061041*
X061004Y087209*
X060971Y087251*
X060942Y087296*
X060917Y087343*
X060896Y087393*
X060878Y087445*
X060864Y087500*
X060855Y087558*
X060849Y087618*
X060847Y087681*
X060347*
G37*
G36*
X064091Y092957D02*
X064137Y093000D01*
X064184Y093039*
X064232Y093073*
X064280Y093102*
X064330Y093126*
X064380Y093147*
X064431Y093162*
X064483Y093173*
X064537Y093179*
X064591Y093181*
X063962Y093810*
X063960Y093756*
X063954Y093703*
X063943Y093650*
X063927Y093599*
X063907Y093549*
X063883Y093499*
X063853Y093451*
X063819Y093403*
X063781Y093356*
X063738Y093311*
X064091Y092957*
G37*
G36*
X062414Y087681D02*
X062412Y087618D01*
X062406Y087558*
X062396Y087500*
X062383Y087445*
X062365Y087393*
X062344Y087343*
X062319Y087296*
X062289Y087251*
X062256Y087209*
X062219Y087170*
X063108*
X063071Y087209*
X063038Y087251*
X063009Y087296*
X062984Y087343*
X062963Y087393*
X062945Y087445*
X062931Y087500*
X062922Y087558*
X062916Y087618*
X062914Y087681*
X062414*
G37*
G36*
X074597Y113616D02*
Y112416D01*
X075175Y111838*
X075283Y111910*
X075270Y111941*
X075251Y112089*
X077343*
X077324Y111941*
X077218Y111685*
X077049Y111464*
X076828Y111295*
X076702Y111243*
X076727Y111116*
X081497*
X083897Y108716*
Y099616*
X082997Y098716*
X046897*
X043297Y102316*
Y109116*
X045197Y111016*
Y112416*
X043897Y113716*
X041497*
X041097Y113316*
Y100016*
X044297Y096816*
X083797*
X085497Y095116*
Y044616*
X082097Y041216*
X063397*
X058697Y045916*
X057028*
X056985Y045789*
X057203Y045622*
X057406Y045357*
X057534Y045048*
X057561Y044843*
X056297*
X055033*
X055060Y045048*
X055188Y045357*
X055391Y045622*
X055609Y045789*
X055566Y045916*
X055197*
X050548Y041267*
X050620Y041159*
X050822Y041243*
X050970Y041262*
Y040343*
X050051*
X050070Y040491*
X050154Y040693*
X050046Y040765*
X049797Y040516*
Y038916*
X050497Y038216*
X083997*
X086397Y040616*
Y050216*
X086677*
X087597Y051136*
Y053036*
X088547*
Y053668*
X088299Y053701*
X088068Y053796*
X087869Y053949*
X087717Y054147*
X087621Y054378*
X087589Y054626*
X087621Y054874*
X087717Y055105*
X087869Y055304*
X088068Y055456*
X088299Y055552*
X088547Y055584*
Y056208*
X088299Y056241*
X088068Y056336*
X087869Y056489*
X087717Y056687*
X087621Y056918*
X087589Y057166*
X087621Y057414*
X087717Y057645*
X087869Y057844*
X088068Y057996*
X088299Y058092*
X088547Y058124*
Y058748*
X088299Y058781*
X088068Y058876*
X087869Y059029*
X087717Y059227*
X087621Y059458*
X087589Y059706*
X087621Y059954*
X087717Y060185*
X087869Y060384*
X088068Y060536*
X088299Y060632*
X088547Y060664*
Y061288*
X088299Y061321*
X088068Y061416*
X087869Y061569*
X087717Y061767*
X087621Y061998*
X087589Y062246*
X087621Y062494*
X087717Y062725*
X087869Y062924*
X088068Y063076*
X088299Y063172*
X088547Y063204*
Y063828*
X088299Y063861*
X088068Y063956*
X087869Y064109*
X087717Y064307*
X087621Y064538*
X087589Y064786*
X087621Y065034*
X087717Y065265*
X087869Y065464*
X088068Y065616*
X088299Y065712*
X088547Y065744*
Y066368*
X088299Y066401*
X088068Y066496*
X087869Y066649*
X087717Y066847*
X087621Y067078*
X087589Y067326*
X087621Y067574*
X087717Y067805*
X087869Y068004*
X088068Y068156*
X088299Y068252*
X088547Y068284*
Y068908*
X088299Y068941*
X088068Y069036*
X087869Y069189*
X087717Y069387*
X087621Y069618*
X087589Y069866*
X087621Y070114*
X087717Y070345*
X087869Y070544*
X088068Y070696*
X088299Y070792*
X088547Y070824*
Y071448*
X088299Y071481*
X088068Y071576*
X087869Y071729*
X087717Y071927*
X087621Y072158*
X087589Y072406*
X087621Y072654*
X087717Y072885*
X087869Y073084*
X088068Y073236*
X088299Y073332*
X088547Y073364*
Y073933*
X088285Y073968*
X088041Y074069*
X087831Y074230*
X087670Y074440*
X087569Y074684*
X087551Y074819*
X088547*
Y075073*
X087551*
X087569Y075208*
X087670Y075452*
X087831Y075662*
X088041Y075823*
X088285Y075924*
X088547Y075959*
Y076473*
X088285Y076508*
X088041Y076609*
X087831Y076770*
X087670Y076980*
X087569Y077224*
X087551Y077359*
X088547*
Y077613*
X087551*
X087569Y077748*
X087670Y077992*
X087831Y078202*
X088041Y078363*
X088285Y078464*
X088547Y078499*
Y079068*
X088299Y079101*
X088068Y079196*
X087869Y079349*
X087717Y079547*
X087621Y079778*
X087589Y080026*
X087621Y080274*
X087717Y080505*
X087869Y080704*
X088068Y080856*
X088299Y080952*
X088547Y080984*
Y081608*
X088299Y081641*
X088068Y081736*
X087869Y081889*
X087717Y082087*
X087621Y082318*
X087589Y082566*
X087621Y082814*
X087717Y083045*
X087869Y083244*
X088068Y083396*
X088299Y083492*
X088547Y083524*
Y084093*
X088285Y084128*
X088041Y084229*
X087831Y084390*
X087670Y084600*
X087569Y084844*
X087551Y084979*
X088547*
Y085233*
X087551*
X087569Y085368*
X087670Y085612*
X087831Y085822*
X088041Y085983*
X088285Y086084*
X088547Y086119*
Y086633*
X088285Y086668*
X088041Y086769*
X087831Y086930*
X087670Y087140*
X087569Y087384*
X087551Y087519*
X088547*
Y087773*
X087551*
X087569Y087908*
X087670Y088152*
X087831Y088362*
X088041Y088523*
X088285Y088624*
X088547Y088659*
Y089228*
X088299Y089261*
X088068Y089356*
X087869Y089509*
X087717Y089707*
X087621Y089938*
X087589Y090186*
X087621Y090434*
X087717Y090665*
X087869Y090864*
X088068Y091016*
X088299Y091112*
X088547Y091144*
Y091768*
X088299Y091801*
X088068Y091896*
X087869Y092049*
X087717Y092247*
X087621Y092478*
X087589Y092726*
X087621Y092974*
X087717Y093205*
X087869Y093404*
X088068Y093556*
X088299Y093652*
X088547Y093684*
Y094253*
X088285Y094288*
X088041Y094389*
X087831Y094550*
X087670Y094760*
X087569Y095004*
X087551Y095139*
X088547*
Y095393*
X087551*
X087569Y095528*
X087670Y095772*
X087831Y095982*
X088041Y096143*
X088285Y096244*
X088547Y096279*
Y096793*
X088285Y096828*
X088041Y096929*
X087831Y097090*
X087670Y097300*
X087569Y097544*
X087551Y097679*
X088547*
Y097933*
X087551*
X087569Y098068*
X087670Y098312*
X087831Y098522*
X088041Y098683*
X088285Y098784*
X088547Y098819*
Y099388*
X088299Y099421*
X088068Y099516*
X087869Y099669*
X087717Y099867*
X087621Y100098*
X087589Y100346*
X087621Y100594*
X087717Y100825*
X087869Y101024*
X088068Y101176*
X088299Y101272*
X088547Y101304*
Y101866*
X086197Y104216*
Y111616*
X083297Y114516*
X075497*
X074597Y113616*
G37*
%LNbottomlayer-7*%
%LPD*%
G36*
X084024Y041262D02*
X084172Y041243D01*
X084428Y041137*
X084649Y040968*
X084818Y040748*
X084924Y040491*
X084943Y040343*
X084024*
Y041262*
G37*
G36*
X083770D02*
Y040343D01*
X082851*
X082870Y040491*
X082976Y040748*
X083145Y040968*
X083365Y041137*
X083622Y041243*
X083770Y041262*
G37*
G36*
X051224D02*
X051372Y041243D01*
X051628Y041137*
X051849Y040968*
X052018Y040748*
X052124Y040491*
X052143Y040343*
X051224*
Y041262*
G37*
G36*
X050051Y040089D02*
X050970D01*
Y039170*
X050822Y039189*
X050565Y039295*
X050345Y039464*
X050176Y039685*
X050070Y039941*
X050051Y040089*
G37*
G36*
X084024D02*
X084943D01*
X084924Y039941*
X084818Y039685*
X084649Y039464*
X084428Y039295*
X084172Y039189*
X084024Y039170*
Y040089*
G37*
G36*
X082851D02*
X083770D01*
Y039170*
X083622Y039189*
X083365Y039295*
X083145Y039464*
X082976Y039685*
X082870Y039941*
X082851Y040089*
G37*
G36*
X051224D02*
X052143D01*
X052124Y039941*
X052018Y039685*
X051849Y039464*
X051628Y039295*
X051372Y039189*
X051224Y039170*
Y040089*
G37*
G36*
X055033Y044589D02*
X056170D01*
Y043452*
X055965Y043479*
X055656Y043607*
X055391Y043810*
X055188Y044076*
X055060Y044385*
X055033Y044589*
G37*
G36*
X076170Y113262D02*
Y112343D01*
X075251*
X075270Y112491*
X075376Y112748*
X075545Y112968*
X075765Y113137*
X076022Y113243*
X076170Y113262*
G37*
G36*
X043424D02*
X043572Y113243D01*
X043828Y113137*
X044049Y112968*
X044218Y112748*
X044324Y112491*
X044343Y112343*
X043424*
Y113262*
G37*
G36*
X043170D02*
Y112343D01*
X042251*
X042270Y112491*
X042376Y112748*
X042545Y112968*
X042765Y113137*
X043022Y113243*
X043170Y113262*
G37*
G36*
X076424D02*
X076572Y113243D01*
X076828Y113137*
X077049Y112968*
X077218Y112748*
X077324Y112491*
X077343Y112343*
X076424*
Y113262*
G37*
G36*
X056424Y044589D02*
X057561D01*
X057534Y044385*
X057406Y044076*
X057203Y043810*
X056937Y043607*
X056628Y043479*
X056424Y043452*
Y044589*
G37*
G36*
X043424Y112089D02*
X044343D01*
X044324Y111941*
X044218Y111685*
X044049Y111464*
X043828Y111295*
X043572Y111189*
X043424Y111170*
Y112089*
G37*
G36*
X042251D02*
X043170D01*
Y111170*
X043022Y111189*
X042765Y111295*
X042545Y111464*
X042376Y111685*
X042270Y111941*
X042251Y112089*
G37*
%LNbottomlayer-8*%
%LPC*%
G54D42*
X088547Y074946D02*
X086067D01*
X088547Y085106D02*
X086187D01*
X088547Y087646D02*
X086127D01*
X088547Y095266D02*
X086147D01*
X088547Y097806D02*
X086007D01*
X086187Y085106D02*
X085997Y084916D01*
X086147Y095266D02*
X085997Y095116D01*
X086127Y087646D02*
X085997Y087516D01*
X086067Y074946D02*
X085997Y075016D01*
X086007Y097806D02*
X085997Y097816D01*
G54D41*
X085997Y054596D02*
Y062216D01*
Y054596D02*
X085097Y053696D01*
G54D42*
X085997Y062216D02*
Y075016D01*
Y084916D01*
Y087516D01*
Y095116D01*
Y097816D01*
X084497D01*
G54D41*
X085097Y041416D02*
Y053696D01*
Y041416D02*
X083897Y040216D01*
G54D42*
X084497Y097816D02*
Y111016D01*
Y097816D02*
X045997D01*
X084497Y111016D02*
X083297Y112216D01*
G54D39*
X083997Y073716D02*
Y076816D01*
Y073716D02*
X071997Y061716D01*
X083997Y076816D02*
X068597Y092216D01*
G54D41*
X083897Y040216D02*
X060797D01*
G54D42*
X083297Y112216D02*
X076297D01*
G54D39*
X082197Y075116D02*
X081297Y076016D01*
G54D41*
X081352Y043916D02*
X080652Y043216D01*
G54D39*
X081297Y076016D02*
X077997D01*
G54D41*
X080652Y043216D02*
X078197D01*
G54D39*
X078802Y109816D02*
X076397D01*
G54D41*
X078197Y043216D02*
X075397Y046016D01*
G54D39*
X077997Y076016D02*
X076564Y074583D01*
X067664D01*
X076397Y109816D02*
X075097Y111116D01*
G54D41*
X075397Y046016D02*
X064097D01*
G54D39*
X075097Y111116D02*
X069517D01*
X074097Y069116D02*
X063997D01*
X071997Y061716D02*
X069697D01*
X063897D01*
G54D41*
X069517Y043216D02*
X064297D01*
G54D39*
X069517Y109216D02*
Y111116D01*
Y111896D01*
X067397Y114016D01*
X069197Y077816D02*
Y080416D01*
Y077816D02*
X068497Y077116D01*
X069197Y080416D02*
X064497Y085116D01*
X068597Y092216D02*
Y093716D01*
X068497Y077116D02*
X066997D01*
X067497Y079216D02*
X063997D01*
X067397Y114016D02*
X065677D01*
Y116216D01*
Y114016D02*
X054497D01*
X064997Y063316D02*
X063997Y064316D01*
X064597Y093816D02*
X062664Y091883D01*
X064497Y085116D02*
Y091716D01*
G54D41*
X064297Y043216D02*
X062797Y044716D01*
X064097Y046016D02*
X062797Y044716D01*
G54D39*
X063997Y064316D02*
Y069116D01*
Y079216D01*
X062997D01*
X063897Y061716D02*
X040507Y085106D01*
X062997Y079216D02*
X049847Y092366D01*
G54D41*
X062797Y044716D02*
X059797Y047716D01*
G54D39*
X062697Y094016D02*
X060597Y091916D01*
X062664Y086716D02*
X062497D01*
X062664Y086883D02*
Y091883D01*
Y086883D02*
X062497Y086716D01*
G54D41*
X060797Y040216D02*
X056297Y044716D01*
G54D39*
X060597Y086716D02*
Y091916D01*
X060097Y094416D02*
X058697Y093016D01*
G54D41*
X059797Y047716D02*
X053997D01*
G54D39*
X058697Y088016D02*
Y093016D01*
G54D41*
X056297Y044716D02*
X051797Y040216D01*
G54D39*
X054497Y114016D02*
X053797Y114716D01*
X054497Y114016D02*
X050297Y109816D01*
G54D41*
X053997Y047716D02*
X049597Y043316D01*
G54D39*
X053797Y114716D02*
Y116216D01*
G54D42*
X051797Y040216D02*
X051097D01*
G54D39*
X050297Y109816D02*
X048362D01*
X049847Y092366D02*
Y095266D01*
X038547D01*
G54D41*
X049597Y043316D02*
X047042D01*
G54D39*
X047197Y074116D02*
X047097D01*
X045697Y072716D01*
X047042Y043916D02*
X045762D01*
G54D41*
X046412Y043266D02*
X045762Y042616D01*
G54D39*
X046021Y075940D02*
X043597Y073516D01*
G54D42*
X045997Y097816D02*
X042097Y101716D01*
G54D39*
X045802Y109816D02*
Y113111D01*
X044597Y114316D01*
X045697Y058616D02*
Y072716D01*
Y058616D02*
X042697Y055616D01*
X044597Y114316D02*
X040097D01*
X043597Y059706D02*
Y073516D01*
G54D42*
X043297Y112216D02*
X042097Y111016D01*
Y101716D02*
Y111016D01*
G54D39*
X041097Y052086D02*
Y074916D01*
Y052086D02*
X038547D01*
X040507Y085106D02*
X038547D01*
X040097Y114316D02*
X038547Y112766D01*
Y085106D02*
Y087646D01*
Y095266D02*
Y097806D01*
Y106216D02*
Y112766D01*
G54D48*
X088547Y046216D03*
G54D46*
X088547Y052086D03*
G54D45*
X088547Y054626D03*
Y057166D03*
Y059706D03*
Y062246D03*
Y064786D03*
Y067326D03*
Y069866D03*
Y072406D03*
Y074946D03*
Y077486D03*
Y080026D03*
Y082566D03*
Y085106D03*
Y087646D03*
Y090186D03*
Y092726D03*
Y095266D03*
Y097806D03*
Y100346D03*
G54D48*
X088547Y106216D03*
G54D44*
X082797Y036216D03*
Y116216D03*
X077297Y036216D03*
Y116216D03*
G54D43*
X074597Y043216D03*
Y109216D03*
X073297Y036216D03*
Y116216D03*
X072057Y043216D03*
Y109216D03*
X070757Y036216D03*
Y116216D03*
X069517Y043216D03*
Y109216D03*
X068217Y036216D03*
Y116216D03*
X065677Y036216D03*
Y116216D03*
G54D47*
X062797Y044716D03*
G54D43*
X061417Y036216D03*
Y116216D03*
X058877Y036216D03*
Y116216D03*
X056337Y036216D03*
Y116216D03*
G54D47*
X056297Y044716D03*
G54D43*
X053797Y036216D03*
Y116216D03*
G54D44*
X049797Y036216D03*
Y116216D03*
X044297Y036216D03*
Y116216D03*
G54D48*
X038547Y046216D03*
G54D46*
X038547Y052086D03*
G54D45*
X038547Y054626D03*
Y057166D03*
Y059706D03*
Y062246D03*
Y064786D03*
Y067326D03*
Y069866D03*
Y072406D03*
Y074946D03*
Y077486D03*
Y080026D03*
Y082566D03*
Y085106D03*
Y087646D03*
Y090186D03*
Y092726D03*
Y095266D03*
Y097806D03*
Y100346D03*
G54D48*
X038547Y106216D03*
G54D50*
X083897Y040216D03*
G54D49*
X082197Y075116D03*
G54D39*
X081362Y108516D03*
Y109816D03*
X081352Y042616D03*
Y043916D03*
X080082Y108516D03*
Y109816D03*
X080072Y042616D03*
Y043916D03*
X078802Y108516D03*
Y109816D03*
X078792Y042616D03*
Y043916D03*
G54D49*
X077997Y076016D03*
G54D50*
X076297Y112216D03*
G54D49*
X074097Y069116D03*
X069697Y061716D03*
X068597Y093716D03*
X067664Y074583D03*
X067497Y079216D03*
X066997Y077116D03*
X064997Y063316D03*
X064597Y093816D03*
X064497Y091716D03*
X063997Y079216D03*
X062697Y094016D03*
X062664Y086716D03*
X060597D03*
X060097Y094416D03*
X058697Y088016D03*
G54D50*
X051097Y040216D03*
G54D49*
X049847Y095266D03*
G54D39*
X048362Y108516D03*
Y109816D03*
X048322Y042616D03*
Y043916D03*
G54D49*
X047197Y074116D03*
G54D39*
X047082Y108516D03*
Y109816D03*
X047042Y042616D03*
Y043916D03*
G54D49*
X046021Y075940D03*
G54D39*
X045802Y108516D03*
Y109816D03*
X045762Y042616D03*
Y043916D03*
G54D49*
X043597Y059706D03*
G54D50*
X043297Y112216D03*
G54D49*
X042697Y055616D03*
X041097Y074916D03*
M02*