%FSDAX33Y33*%
%MOMM*%
%SFA1B1*%

%IPPOS*%
%ADD21C,1.727200*%
%ADD22C,1.903199*%
%ADD23C,1.703200*%
%ADD24R,1.703200X1.703200*%
%ADD25C,2.235200*%
%ADD26C,3.703201*%
%ADD27C,0.703199*%
%ADD28C,1.803199*%
%LNbottomsolder-1*%
%LPD*%
G54D26*
X088496Y046216D03*
G54D24*
X088496Y052086D03*
G54D23*
X088496Y054626D03*
Y057166D03*
Y059706D03*
Y062246D03*
Y064786D03*
Y067326D03*
Y069866D03*
Y072406D03*
Y074946D03*
Y077486D03*
Y080026D03*
Y082566D03*
Y085106D03*
Y087646D03*
Y090186D03*
Y092726D03*
Y095266D03*
Y097806D03*
Y100346D03*
G54D26*
X088496Y106216D03*
G54D22*
X082746Y036216D03*
Y116216D03*
X077246Y036216D03*
Y116216D03*
G54D21*
X074546Y043216D03*
Y109216D03*
X073246Y036216D03*
Y116216D03*
X072006Y043216D03*
Y109216D03*
X070706Y036216D03*
Y116216D03*
X069466Y043216D03*
Y109216D03*
X068166Y036216D03*
Y116216D03*
X065626Y036216D03*
Y116216D03*
G54D25*
X062746Y044716D03*
G54D21*
X061366Y036216D03*
Y116216D03*
X058826Y036216D03*
Y116216D03*
X056286Y036216D03*
Y116216D03*
G54D25*
X056246Y044716D03*
G54D21*
X053746Y036216D03*
Y116216D03*
G54D22*
X049746Y036216D03*
Y116216D03*
X044246Y036216D03*
Y116216D03*
G54D26*
X038496Y046216D03*
G54D24*
X038496Y052086D03*
G54D23*
X038496Y054626D03*
Y057166D03*
Y059706D03*
Y062246D03*
Y064786D03*
Y067326D03*
Y069866D03*
Y072406D03*
Y074946D03*
Y077486D03*
Y080026D03*
Y082566D03*
Y085106D03*
Y087646D03*
Y090186D03*
Y092726D03*
Y095266D03*
Y097806D03*
Y100346D03*
G54D26*
X038496Y106216D03*
G36*
X083046Y045116D02*
Y060516D01*
X047046Y060716*
Y058416*
X042946Y054216*
Y045116*
X051446*
Y048116*
X060646*
Y045116*
X083046*
G37*
G36*
X083146Y107916D02*
X044546Y107816D01*
X044446Y102616*
X047146Y099616*
X083146Y099816*
Y107916*
G37*
G54D28*
X083846Y040216D03*
G54D27*
X081311Y108516D03*
Y109816D03*
X081301Y042616D03*
Y043916D03*
X080031Y108516D03*
Y109816D03*
X080021Y042616D03*
Y043916D03*
X078751Y108516D03*
Y109816D03*
X078741Y042616D03*
Y043916D03*
G54D28*
X076246Y112216D03*
X051046Y040216D03*
G54D27*
X048311Y108516D03*
Y109816D03*
X048271Y042616D03*
Y043916D03*
X047031Y108516D03*
Y109816D03*
X046991Y042616D03*
Y043916D03*
X045751Y108516D03*
Y109816D03*
X045711Y042616D03*
Y043916D03*
G54D28*
X043246Y112216D03*
M02*