%FSDAX33Y33*%
%MOMM*%
%SFA1B1*%

%IPPOS*%
%ADD9500C,0.399999*%
%ADD9501C,0.711200*%
%ADD9502C,0.900001*%
%ADD9503C,1.000001*%
%ADD9504C,1.200000*%
%ADD9505C,1.400000*%
%ADD9506C,3.099999*%
%LNdrill-1*%
%LPD*%
G54D9506*
X055749Y091199D03*
G54D9502*
X055749Y097069D03*
Y099609D03*
Y102149D03*
Y104689D03*
Y107229D03*
Y109769D03*
Y112309D03*
Y114849D03*
Y117389D03*
Y119929D03*
Y122469D03*
Y125009D03*
Y127549D03*
Y130089D03*
Y132629D03*
Y135169D03*
Y137709D03*
Y140249D03*
Y142789D03*
Y145329D03*
G54D9506*
X055749Y151199D03*
G54D9504*
X061499Y081199D03*
Y161199D03*
X066999Y081199D03*
Y161199D03*
G54D9502*
X069699Y088199D03*
Y154199D03*
X070999Y081199D03*
Y161199D03*
X072239Y088199D03*
Y154199D03*
X073539Y081199D03*
Y161199D03*
X074779Y088199D03*
Y154199D03*
X076079Y081199D03*
Y161199D03*
X078619Y081199D03*
Y161199D03*
G54D9505*
X081499Y089699D03*
G54D9502*
X082879Y081199D03*
Y161199D03*
X085419Y081199D03*
Y161199D03*
X087959Y081199D03*
Y161199D03*
G54D9505*
X087999Y089699D03*
G54D9502*
X090499Y081199D03*
Y161199D03*
G54D9504*
X094499Y081199D03*
Y161199D03*
X099999Y081199D03*
Y161199D03*
G54D9506*
X105749Y091199D03*
G54D9502*
X105749Y097069D03*
Y099609D03*
Y102149D03*
Y104689D03*
Y107229D03*
Y109769D03*
Y112309D03*
Y114849D03*
Y117389D03*
Y119929D03*
Y122469D03*
Y125009D03*
Y127549D03*
Y130089D03*
Y132629D03*
Y135169D03*
Y137709D03*
Y140249D03*
Y142789D03*
Y145329D03*
G54D9506*
X105749Y151199D03*
G54D9503*
X060399Y085199D03*
G54D9501*
X062099Y120099D03*
G54D9500*
X062934Y153499D03*
Y154799D03*
X062944Y087599D03*
Y088900D03*
X064214Y153499D03*
Y154799D03*
X064224Y087599D03*
Y088900D03*
X065494Y153499D03*
Y154799D03*
X065504Y087599D03*
Y088900D03*
G54D9501*
X066299Y120999D03*
G54D9503*
X067999Y157199D03*
G54D9501*
X070199Y114100D03*
X074599Y106699D03*
X075700Y138699D03*
X076632Y119566D03*
X076799Y124199D03*
X077299Y122099D03*
X079299Y108299D03*
X079699Y138799D03*
X079799Y136699D03*
X080299Y124199D03*
X081599Y139000D03*
X081632Y131699D03*
X083699D03*
X084199Y139400D03*
X085599Y132999D03*
G54D9503*
X093199Y085199D03*
G54D9501*
X094449Y140249D03*
G54D9500*
X095934Y153499D03*
Y154799D03*
X095974Y087599D03*
Y088900D03*
G54D9501*
X097099Y119099D03*
G54D9500*
X097214Y153499D03*
Y154799D03*
X097254Y087599D03*
Y088900D03*
G54D9501*
X098275Y120923D03*
G54D9500*
X098494Y153499D03*
Y154799D03*
X098534Y087599D03*
Y088900D03*
G54D9501*
X100699Y104689D03*
G54D9503*
X101000Y157199D03*
G54D9501*
X101600Y100599D03*
X103199Y119899D03*
M02*